<svg width="9" height="9" viewBox="0 0 9 9" fill="none" xmlns="http://www.w3.org/2000/svg">
<path d="M7.584 3.888C7.78667 3.888 7.92533 3.93067 8 4.016C8.08533 4.09067 8.128 4.22933 8.128 4.432V5.088C8.128 5.29067 8.08533 5.43467 8 5.52C7.92533 5.59467 7.78667 5.632 7.584 5.632H5.216V8C5.216 8.20267 5.17333 8.34667 5.088 8.432C5.00267 8.50667 4.85867 8.544 4.656 8.544H4.016C3.81333 8.544 3.66933 8.50667 3.584 8.432C3.50933 8.34667 3.472 8.20267 3.472 8V5.632H1.12C0.917333 5.632 0.773333 5.59467 0.688 5.52C0.613333 5.43467 0.576 5.29067 0.576 5.088V4.432C0.576 4.22933 0.613333 4.09067 0.688 4.016C0.773333 3.93067 0.917333 3.888 1.12 3.888H3.472V1.536C3.472 1.33333 3.50933 1.19467 3.584 1.12C3.66933 1.03467 3.81333 0.992 4.016 0.992H4.656C4.85867 0.992 5.00267 1.03467 5.088 1.12C5.17333 1.19467 5.216 1.33333 5.216 1.536V3.888H7.584Z" fill="black"/>
</svg>
