<svg width="17" height="18" viewBox="0 0 17 18" fill="none" xmlns="http://www.w3.org/2000/svg">
<path d="M16.4507 3.18203C16.2675 2.47639 15.6785 1.77075 14.6183 0.98523C13.7676 0.359476 12.8645 0 12.1446 0C12.0006 0 11.8697 0.0133133 11.7389 0.039941C11.4116 0.106511 11.1237 0.346161 10.9405 0.705639C10.7179 1.13168 10.6656 1.70418 10.8096 2.05034C10.8619 2.15685 10.9274 2.28999 11.0059 2.40982C10.3122 2.83586 9.91954 2.95569 9.86719 2.969C11.6734 3.58144 13.1786 4.85959 14.121 6.5238L14.1341 6.36404C14.1733 5.92468 14.3042 5.41876 14.4874 4.89952C14.6707 4.95278 14.8539 4.9794 15.0372 4.9794C15.5215 4.9794 15.9403 4.77971 16.2021 4.42023C16.4638 4.06074 16.5685 3.58144 16.4507 3.18203Z" fill="url(#paint0_linear_24012_455547)"/>
<path d="M14.5685 4.51361C15.7596 4.84643 16.2438 3.91446 16.0868 3.28872C15.9166 2.66296 15.3669 2.02389 14.3984 1.30494C13.4298 0.585992 12.4482 0.293086 11.8199 0.426223C11.1917 0.559363 11.0084 1.53128 11.1655 1.90407C11.2309 2.05052 11.3749 2.26354 11.5712 2.50319C11.3226 2.67627 11.0869 2.80941 10.8906 2.92924C12.0948 3.47511 13.1419 4.3272 13.9272 5.3923C14.0188 5.03285 14.1497 4.71331 14.2675 4.4337C14.3591 4.44701 14.4638 4.47364 14.5685 4.51361Z" fill="url(#paint1_linear_24012_455547)"/>
<path d="M7.74914 17.5602C11.7899 17.5602 15.0656 14.2281 15.0656 10.1178C15.0656 6.00742 11.7899 2.67529 7.74914 2.67529C3.70833 2.67529 0.432617 6.00742 0.432617 10.1178C0.432617 14.2281 3.70833 17.5602 7.74914 17.5602Z" fill="url(#paint2_linear_24012_455547)"/>
<path opacity="0.5" d="M15.4836 2.67588C14.4889 1.61077 13.6512 1.33118 12.6434 1.10484C11.8581 0.918445 12.0675 0.465772 13.0229 0.558969C12.5648 0.3992 12.1329 0.359259 11.8188 0.42583C11.1905 0.558969 11.0073 1.53088 11.1644 1.90367C11.2298 2.05013 11.3738 2.26315 11.5701 2.5028C11.2167 2.74245 10.9157 2.91553 10.667 3.04867C10.7848 3.10192 10.9287 3.1685 11.0989 3.26169C11.5439 3.50134 12.0282 3.90074 12.0282 3.90074C11.2952 3.26169 11.4523 2.96879 12.4601 2.24983C12.7742 2.0235 13.3501 2.05013 13.8868 2.32972C14.4234 2.60931 15.0517 3.31495 15.0517 3.31495L14.4496 4.48658C14.4889 4.4999 14.5281 4.51321 14.5674 4.52652C14.947 4.63302 15.248 4.6064 15.4836 4.51321C15.7584 4.34011 16.4783 3.7543 15.4836 2.67588Z" fill="url(#paint3_linear_24012_455547)"/>
<path d="M12.6307 1.74457C12.8925 1.85108 13.2328 2.03748 13.6516 2.31707C14.149 2.64992 14.5809 3.02271 14.8558 3.31561C14.3977 3.92804 14.0966 4.76682 13.9134 5.35266C14.005 5.48579 14.1097 5.61891 14.2013 5.75204C14.293 5.41922 14.45 4.92661 14.6594 4.43396C14.7118 4.44731 14.7772 4.44731 14.8427 4.44731C14.9997 4.44731 15.183 4.42065 15.3269 4.30083C15.4316 4.22096 15.5495 4.07452 15.5364 3.80822C15.5364 3.55526 15.34 3.23573 14.9343 2.84963C14.6463 2.57003 14.2537 2.26381 13.861 1.98422C12.7354 1.22533 11.9501 1.01231 11.5967 1.37178C11.3611 1.61143 11.3873 1.90434 11.4658 2.11736C11.047 2.39695 10.6936 2.59666 10.458 2.7298C10.6151 2.78305 10.759 2.84963 10.9161 2.9162C11.3349 2.68986 11.937 2.30376 12.6307 1.74457ZM15.1044 3.64846C15.1437 3.71503 15.1568 3.7816 15.1568 3.82154C15.1568 3.94135 15.1175 3.98133 15.0914 4.00795C15.039 4.04789 14.9343 4.07452 14.8427 4.07452C14.9212 3.91473 15.0128 3.7816 15.1044 3.64846ZM11.8716 1.66469C11.9108 1.62475 12.0155 1.59812 12.1857 1.62475C12.0548 1.73126 11.9239 1.82445 11.793 1.91765C11.78 1.82445 11.793 1.73126 11.8716 1.66469Z" fill="url(#paint4_linear_24012_455547)"/>
<path d="M7.74843 2.23584C3.46847 2.23584 0 5.76401 0 10.1177C0 14.4713 3.46847 17.9995 7.74843 17.9995C12.0284 17.9995 15.4969 14.4713 15.4969 10.1177C15.4969 5.76401 12.0153 2.23584 7.74843 2.23584ZM7.74843 17.5602C3.70406 17.5602 0.431924 14.2317 0.431924 10.1177C0.431924 6.00368 3.70406 2.6752 7.74843 2.6752C11.7928 2.6752 15.0649 6.00368 15.0649 10.1177C15.0649 14.2317 11.7797 17.5602 7.74843 17.5602Z" fill="url(#paint5_linear_24012_455547)"/>
<path opacity="0.6" d="M7.74914 17.5602C11.7899 17.5602 15.0656 14.2281 15.0656 10.1178C15.0656 6.00742 11.7899 2.67529 7.74914 2.67529C3.70833 2.67529 0.432617 6.00742 0.432617 10.1178C0.432617 14.2281 3.70833 17.5602 7.74914 17.5602Z" fill="url(#paint6_linear_24012_455547)"/>
<path opacity="0.6" d="M7.69523 16.6562C3.70321 16.0038 0.993876 12.1828 1.6483 8.12203C1.93625 6.32465 2.82627 4.79353 4.08278 3.68848C2.25038 4.7669 0.88917 6.64415 0.522689 8.93414C-0.118651 12.9949 2.59068 16.816 6.56961 17.4684C8.79465 17.8412 10.9412 17.1355 12.5249 15.7509C11.1244 16.5763 9.4229 16.9358 7.69523 16.6562Z" fill="url(#paint7_linear_24012_455547)"/>
<path opacity="0.6" d="M8.91341 2.78217C7.06791 2.47595 5.27481 2.90199 3.80887 3.84729C3.78269 3.87391 3.75651 3.90054 3.75651 3.90054C4.31933 3.55437 5.1439 3.24816 5.1439 3.24816C3.02357 4.49965 2.36914 5.92423 2.36914 5.92423C3.19372 4.29996 5.61509 3.15495 7.51294 3.07507C9.41078 2.99519 10.6542 3.56769 12.1725 4.80588C13.6908 6.0574 14.6069 8.61365 14.5153 10.6374C14.4368 12.6611 13.3897 14.2987 13.3897 14.2987C14.1096 13.3534 14.5415 12.6611 14.8163 11.9555C14.8687 11.7424 14.9211 11.5294 14.9473 11.3031C15.6017 7.25563 12.9054 3.43455 8.91341 2.78217Z" fill="url(#paint8_linear_24012_455547)"/>
<path d="M14.6993 10.0522C14.6993 13.9532 11.5842 17.1219 7.74925 17.1219C3.9143 17.1219 0.786133 13.9532 0.786133 10.0522H14.6993Z" fill="url(#paint9_linear_24012_455547)"/>
<g opacity="0.6">
<path opacity="0.6" d="M14.1478 10.0513C14.1478 13.859 11.1898 16.9745 7.47266 17.121C7.56427 17.121 7.65589 17.121 7.7475 17.121C11.5825 17.121 14.6975 13.9523 14.6975 10.0513H14.1478Z" fill="url(#paint10_linear_24012_455547)"/>
</g>
<g opacity="0.7">
<path opacity="0.7" d="M1.76484 10.0513H0.783203C0.783203 13.9523 3.89828 17.121 7.73323 17.121C7.90337 17.121 8.06042 17.121 8.21751 17.1077C4.61815 16.8414 1.76484 13.7792 1.76484 10.0513Z" fill="url(#paint11_linear_24012_455547)"/>
</g>
<path d="M14.6862 10.1188C14.6862 9.30667 13.2988 8.84069 11.4533 8.68089C10.1183 8.57439 8.77013 8.70752 7.2257 9.18682C5.89067 9.58624 4.68651 9.51968 3.80959 9.41317C1.85939 9.18682 0.786133 9.16019 0.786133 10.1188C0.786133 11.5034 3.5609 13.2342 7.72307 12.6351C9.83032 12.3289 10.9167 11.7032 12.1601 11.2771C13.5082 10.8244 14.6862 10.8378 14.6862 10.1188Z" fill="url(#paint12_linear_24012_455547)"/>
<path d="M10.0247 6.76372C10.6752 6.76372 11.2026 6.22723 11.2026 5.56545C11.2026 4.90367 10.6752 4.36719 10.0247 4.36719C9.37409 4.36719 8.84668 4.90367 8.84668 5.56545C8.84668 6.22723 9.37409 6.76372 10.0247 6.76372Z" fill="white"/>
<path d="M11.9505 7.6554C12.2252 7.6554 12.4479 7.4289 12.4479 7.14948C12.4479 6.87006 12.2252 6.64355 11.9505 6.64355C11.6758 6.64355 11.4531 6.87006 11.4531 7.14948C11.4531 7.4289 11.6758 7.6554 11.9505 7.6554Z" fill="white"/>
<g opacity="0.6">
<path opacity="0.6" d="M13.731 4.60559C13.7179 4.60559 13.7048 4.60559 13.7048 4.60559C13.6262 4.59228 13.5739 4.5124 13.587 4.41918C13.7048 3.80675 14.2021 3.22094 14.2283 3.19431C14.2807 3.12774 14.3854 3.12774 14.4377 3.181C14.5032 3.23425 14.5032 3.34076 14.4508 3.39402C14.4377 3.40733 13.9796 3.95319 13.8749 4.48574C13.8618 4.56566 13.7964 4.60559 13.731 4.60559Z" fill="url(#paint13_linear_24012_455547)"/>
</g>
<path opacity="0.2" d="M7.26493 15.6709C7.46733 15.6709 7.63139 15.504 7.63139 15.2981C7.63139 15.0922 7.46733 14.9253 7.26493 14.9253C7.06254 14.9253 6.89844 15.0922 6.89844 15.2981C6.89844 15.504 7.06254 15.6709 7.26493 15.6709Z" fill="white"/>
<g opacity="0.4">
<path opacity="0.6" d="M7.05486 15.5376C6.91089 15.3912 6.91089 15.1515 7.05486 15.0051C7.08103 14.9785 7.10721 14.9651 7.13338 14.9385C7.08103 14.9518 7.04177 14.9785 7.00251 15.0184C6.85854 15.1648 6.85854 15.4045 7.00251 15.5509C7.1203 15.6708 7.30353 15.6974 7.44753 15.6175C7.31661 15.6708 7.15956 15.6441 7.05486 15.5376Z" fill="url(#paint14_linear_24012_455547)"/>
</g>
<path opacity="0.3" d="M7.39493 15.191C7.43828 15.191 7.47346 15.1553 7.47346 15.1111C7.47346 15.067 7.43828 15.0312 7.39493 15.0312C7.35154 15.0312 7.31641 15.067 7.31641 15.1111C7.31641 15.1553 7.35154 15.191 7.39493 15.191Z" fill="white"/>
<path opacity="0.2" d="M9.17509 15.4838C9.37748 15.4838 9.54155 15.317 9.54155 15.111C9.54155 14.9052 9.37748 14.7383 9.17509 14.7383C8.9727 14.7383 8.80859 14.9052 8.80859 15.111C8.80859 15.317 8.9727 15.4838 9.17509 15.4838Z" fill="white"/>
<g opacity="0.4">
<path opacity="0.6" d="M8.96599 15.3511C8.82202 15.2046 8.82202 14.965 8.96599 14.8185C8.99217 14.7919 9.01834 14.7786 9.04452 14.752C8.99217 14.7653 8.9529 14.7919 8.91364 14.8318C8.76967 14.9783 8.76967 15.2179 8.91364 15.3644C9.03143 15.4842 9.21466 15.5109 9.35866 15.4309C9.22775 15.4842 9.07069 15.4576 8.96599 15.3511Z" fill="url(#paint15_linear_24012_455547)"/>
</g>
<path opacity="0.3" d="M9.30607 15.0045C9.34942 15.0045 9.38459 14.9687 9.38459 14.9246C9.38459 14.8805 9.34942 14.8447 9.30607 14.8447C9.26268 14.8447 9.22754 14.8805 9.22754 14.9246C9.22754 14.9687 9.26268 15.0045 9.30607 15.0045Z" fill="white"/>
<path opacity="0.2" d="M8.23285 16.3497C8.38465 16.3497 8.5077 16.2246 8.5077 16.0701C8.5077 15.9157 8.38465 15.7905 8.23285 15.7905C8.08105 15.7905 7.95801 15.9157 7.95801 16.0701C7.95801 16.2246 8.08105 16.3497 8.23285 16.3497Z" fill="white"/>
<g opacity="0.4">
<path opacity="0.6" d="M8.07482 16.2431C7.97012 16.1365 7.97012 15.9502 8.07482 15.8436C8.08791 15.8303 8.11409 15.817 8.12717 15.8037C8.08791 15.817 8.06173 15.8436 8.03556 15.8703C7.93086 15.9768 7.93086 16.1632 8.03556 16.2697C8.12717 16.3629 8.25805 16.3762 8.37584 16.3096C8.27114 16.3496 8.15335 16.3229 8.07482 16.2431Z" fill="url(#paint16_linear_24012_455547)"/>
</g>
<path opacity="0.3" d="M8.32481 15.9767C8.35373 15.9767 8.37716 15.9528 8.37716 15.9234C8.37716 15.894 8.35373 15.8701 8.32481 15.8701C8.2959 15.8701 8.27246 15.894 8.27246 15.9234C8.27246 15.9528 8.2959 15.9767 8.32481 15.9767Z" fill="white"/>
<path opacity="0.2" d="M9.92133 16.1495C10.0731 16.1495 10.1962 16.0244 10.1962 15.8699C10.1962 15.7155 10.0731 15.5903 9.92133 15.5903C9.76952 15.5903 9.64648 15.7155 9.64648 15.8699C9.64648 16.0244 9.76952 16.1495 9.92133 16.1495Z" fill="white"/>
<g opacity="0.4">
<path opacity="0.6" d="M9.76525 16.0433C9.66055 15.9368 9.66055 15.7504 9.76525 15.6439C9.77834 15.6306 9.80451 15.6173 9.8176 15.604C9.77834 15.6173 9.75216 15.6439 9.72599 15.6706C9.62129 15.7771 9.62129 15.9634 9.72599 16.07C9.8176 16.1632 9.94848 16.1765 10.0663 16.1099C9.96157 16.1499 9.84378 16.1232 9.76525 16.0433Z" fill="url(#paint17_linear_24012_455547)"/>
</g>
<path opacity="0.3" d="M10.0133 15.7764C10.0422 15.7764 10.0656 15.7526 10.0656 15.7232C10.0656 15.6938 10.0422 15.6699 10.0133 15.6699C9.98438 15.6699 9.96094 15.6938 9.96094 15.7232C9.96094 15.7526 9.98438 15.7764 10.0133 15.7764Z" fill="white"/>
<path opacity="0.2" d="M5.70559 15.5374C6.03807 15.5374 6.30763 15.2632 6.30763 14.925C6.30763 14.5867 6.03807 14.3125 5.70559 14.3125C5.37307 14.3125 5.10352 14.5867 5.10352 14.925C5.10352 15.2632 5.37307 15.5374 5.70559 15.5374Z" fill="white"/>
<g opacity="0.4">
<path opacity="0.6" d="M5.36752 15.3111C5.13194 15.0715 5.13194 14.6854 5.36752 14.4457C5.40678 14.4058 5.44604 14.3792 5.49839 14.3525C5.41987 14.3792 5.35443 14.4324 5.28899 14.4857C5.05341 14.7253 5.05341 15.1114 5.28899 15.3511C5.48531 15.5508 5.78636 15.5907 6.02194 15.4443C5.79945 15.5375 5.53766 15.4975 5.36752 15.3111Z" fill="url(#paint18_linear_24012_455547)"/>
</g>
<path opacity="0.3" d="M5.91603 14.7389C5.9883 14.7389 6.04691 14.6793 6.04691 14.6058C6.04691 14.5322 5.9883 14.4727 5.91603 14.4727C5.84373 14.4727 5.78516 14.5322 5.78516 14.6058C5.78516 14.6793 5.84373 14.7389 5.91603 14.7389Z" fill="white"/>
<path opacity="0.2" d="M11.0874 14.033C11.4199 14.033 11.6895 13.7588 11.6895 13.4205C11.6895 13.0823 11.4199 12.8081 11.0874 12.8081C10.7549 12.8081 10.4854 13.0823 10.4854 13.4205C10.4854 13.7588 10.7549 14.033 11.0874 14.033Z" fill="white"/>
<g opacity="0.4">
<path opacity="0.6" d="M10.7318 13.8067C10.4962 13.5671 10.4962 13.181 10.7318 12.9413C10.7711 12.9014 10.8103 12.8748 10.8627 12.8481C10.7842 12.8748 10.7187 12.928 10.6533 12.9813C10.4177 13.2209 10.4177 13.607 10.6533 13.8467C10.8496 14.0464 11.1506 14.0863 11.3862 13.9399C11.1637 14.0331 10.915 13.9931 10.7318 13.8067Z" fill="url(#paint19_linear_24012_455547)"/>
</g>
<path opacity="0.3" d="M11.2949 13.2345C11.3672 13.2345 11.4259 13.1749 11.4259 13.1014C11.4259 13.0279 11.3672 12.9683 11.2949 12.9683C11.2227 12.9683 11.1641 13.0279 11.1641 13.1014C11.1641 13.1749 11.2227 13.2345 11.2949 13.2345Z" fill="white"/>
<defs>
<linearGradient id="paint0_linear_24012_455547" x1="9.86719" y1="3.2619" x2="16.4988" y2="3.2619" gradientUnits="userSpaceOnUse">
<stop stop-color="#FF4E50"/>
<stop offset="1" stop-color="#F9D423"/>
</linearGradient>
<linearGradient id="paint1_linear_24012_455547" x1="10.8906" y1="2.89366" x2="16.1155" y2="2.89366" gradientUnits="userSpaceOnUse">
<stop stop-color="#FAD0C4"/>
<stop offset="0.01" stop-color="#FAD0C4"/>
<stop offset="1" stop-color="#FFD1FF"/>
</linearGradient>
<linearGradient id="paint2_linear_24012_455547" x1="0.432617" y1="10.1178" x2="15.0656" y2="10.1178" gradientUnits="userSpaceOnUse">
<stop stop-color="#FAD0C4"/>
<stop offset="0.01" stop-color="#FAD0C4"/>
<stop offset="1" stop-color="#FFD1FF"/>
</linearGradient>
<linearGradient id="paint3_linear_24012_455547" x1="10.667" y1="2.49526" x2="15.9933" y2="2.49526" gradientUnits="userSpaceOnUse">
<stop stop-color="#FAD0C4"/>
<stop offset="0.01" stop-color="#FAD0C4"/>
<stop offset="1" stop-color="#FFD1FF"/>
</linearGradient>
<linearGradient id="paint4_linear_24012_455547" x1="10.458" y1="3.47685" x2="15.5374" y2="3.47685" gradientUnits="userSpaceOnUse">
<stop stop-color="#FF4E50"/>
<stop offset="1" stop-color="#F9D423"/>
</linearGradient>
<linearGradient id="paint5_linear_24012_455547" x1="0" y1="10.1177" x2="15.4969" y2="10.1177" gradientUnits="userSpaceOnUse">
<stop stop-color="#FF4E50"/>
<stop offset="1" stop-color="#F9D423"/>
</linearGradient>
<linearGradient id="paint6_linear_24012_455547" x1="6.57551" y1="17.4547" x2="8.99484" y2="2.78158" gradientUnits="userSpaceOnUse">
<stop stop-color="#F2B64B"/>
<stop offset="0.6202" stop-color="white" stop-opacity="0"/>
</linearGradient>
<linearGradient id="paint7_linear_24012_455547" x1="0.428711" y1="10.6278" x2="12.5249" y2="10.6278" gradientUnits="userSpaceOnUse">
<stop stop-color="#FAD0C4"/>
<stop offset="0.01" stop-color="#FAD0C4"/>
<stop offset="1" stop-color="#FFD1FF"/>
</linearGradient>
<linearGradient id="paint8_linear_24012_455547" x1="12.9048" y1="5.0637" x2="6.76044" y2="10.6059" gradientUnits="userSpaceOnUse">
<stop offset="0.2888" stop-color="white"/>
<stop offset="0.7796" stop-color="white" stop-opacity="0"/>
</linearGradient>
<linearGradient id="paint9_linear_24012_455547" x1="-2.03172" y1="19.8066" x2="7.20005" y2="1.07951" gradientUnits="userSpaceOnUse">
<stop stop-color="#F7FF00"/>
<stop offset="1" stop-color="#FA06A8"/>
</linearGradient>
<linearGradient id="paint10_linear_24012_455547" x1="15.3523" y1="10.6716" x2="7.66275" y2="17.8157" gradientUnits="userSpaceOnUse">
<stop offset="0.2888" stop-color="white"/>
<stop offset="0.7796" stop-color="white" stop-opacity="0"/>
</linearGradient>
<linearGradient id="paint11_linear_24012_455547" x1="-0.722481" y1="19.8057" x2="10.8788" y2="7.23064" gradientUnits="userSpaceOnUse">
<stop stop-color="#F7FF00"/>
<stop offset="1" stop-color="#FA06A8"/>
</linearGradient>
<linearGradient id="paint12_linear_24012_455547" x1="0.786133" y1="10.7018" x2="14.6862" y2="10.7018" gradientUnits="userSpaceOnUse">
<stop stop-color="#F2994A"/>
<stop offset="1" stop-color="#F2C94C"/>
</linearGradient>
<linearGradient id="paint13_linear_24012_455547" x1="14.459" y1="3.12947" x2="13.4361" y2="4.76347" gradientUnits="userSpaceOnUse">
<stop offset="0.2888" stop-color="white"/>
<stop offset="0.7796" stop-color="white" stop-opacity="0"/>
</linearGradient>
<linearGradient id="paint14_linear_24012_455547" x1="6.89417" y1="15.3094" x2="7.4479" y2="15.3094" gradientUnits="userSpaceOnUse">
<stop offset="0.2888" stop-color="white"/>
<stop offset="0.7796" stop-color="white" stop-opacity="0"/>
</linearGradient>
<linearGradient id="paint15_linear_24012_455547" x1="8.80395" y1="15.1203" x2="9.35772" y2="15.1203" gradientUnits="userSpaceOnUse">
<stop offset="0.2888" stop-color="white"/>
<stop offset="0.7796" stop-color="white" stop-opacity="0"/>
</linearGradient>
<linearGradient id="paint16_linear_24012_455547" x1="7.95531" y1="16.0732" x2="8.37104" y2="16.0732" gradientUnits="userSpaceOnUse">
<stop offset="0.2888" stop-color="white"/>
<stop offset="0.7796" stop-color="white" stop-opacity="0"/>
</linearGradient>
<linearGradient id="paint17_linear_24012_455547" x1="9.64007" y1="15.8729" x2="10.0558" y2="15.8729" gradientUnits="userSpaceOnUse">
<stop offset="0.2888" stop-color="white"/>
<stop offset="0.7796" stop-color="white" stop-opacity="0"/>
</linearGradient>
<linearGradient id="paint18_linear_24012_455547" x1="5.10629" y1="14.9406" x2="6.01062" y2="14.9406" gradientUnits="userSpaceOnUse">
<stop offset="0.2888" stop-color="white"/>
<stop offset="0.7796" stop-color="white" stop-opacity="0"/>
</linearGradient>
<linearGradient id="paint19_linear_24012_455547" x1="10.4756" y1="13.4358" x2="11.3799" y2="13.4358" gradientUnits="userSpaceOnUse">
<stop offset="0.2888" stop-color="white"/>
<stop offset="0.7796" stop-color="white" stop-opacity="0"/>
</linearGradient>
</defs>
</svg>
