<svg width="130" height="122" viewBox="0 0 130 122" fill="none" xmlns="http://www.w3.org/2000/svg">
<path d="M51.3315 0.636719C68.5438 0.636719 102.481 40.8947 102.481 69.5729C102.481 97.7747 79.6187 120.637 51.4169 120.637C23.2151 120.637 0.353027 97.7747 0.353027 69.5729C0.353027 40.8856 34.1405 0.636719 51.3315 0.636719ZM51.3315 10.8495C47.9997 10.8495 37.35 18.8435 28.4446 29.4518C17.3981 42.6108 10.5658 57.1125 10.5658 69.5729C10.5658 92.1344 28.8554 110.424 51.4169 110.424C73.9783 110.424 92.268 92.1344 92.268 69.5729C92.268 57.12 85.4062 42.6223 74.3105 29.4599C65.3681 18.8519 54.6715 10.8495 51.3315 10.8495Z" fill="#C6D1FF"/>
<rect x="61.6877" y="52" width="2.85102" height="33.4995" rx="1.42551" transform="rotate(45 61.6877 52)" fill="#8B9BC7"/>
<rect x="64.1544" y="75.709" width="2.85102" height="33.4995" rx="1.42551" transform="rotate(135 64.1544 75.709)" fill="#8B9BC7"/>
<path d="M120.972 108.685L118.823 106.463L116.514 109.4C116.514 109.4 118.266 111.066 120.335 110.59L120.972 108.685Z" fill="#6A4BFF"/>
<path d="M115.877 105.272L114.882 108.368L116.554 109.44L118.823 106.463L115.877 105.272Z" fill="#6A4BFF"/>
<path d="M86.6638 105.431C87.42 103.169 90.0468 102.176 92.0767 103.248L89.6886 102.018C87.8578 101.065 86.9822 98.8825 87.818 97.0172C88.7334 94.9535 91.1613 94.1201 93.1115 95.152L90.7235 93.9217C88.8926 92.9692 88.017 90.7865 88.8528 88.9212C89.7682 86.8576 92.1961 86.0241 94.1463 87.056L82.8031 81.1427C81.0917 80.2696 80.2161 78.2853 80.8131 76.4598C81.5693 74.1976 84.1961 73.2055 86.226 74.277L110.106 86.7385L107.758 76.6979C107.519 75.7057 107.679 74.6739 108.116 73.8405C108.594 72.9277 109.47 72.1736 110.544 71.8165C112.614 71.1815 114.803 72.253 115.599 74.2373L123.44 94.517C124.116 96.2632 125.39 97.6919 127.022 98.5253L128.375 99.2397C129.251 99.7159 129.609 100.787 129.131 101.661L119.579 119.877C119.101 120.75 118.027 121.107 117.151 120.631L113.808 118.884C112.534 118.21 111.101 117.972 109.708 118.051C106.286 118.249 102.863 117.495 99.798 115.908L88.6538 110.114C86.9424 109.241 86.0668 107.256 86.6638 105.431Z" fill="#6A4BFF"/>
<path d="M117.987 121.464C117.629 121.464 117.231 121.385 116.873 121.187L113.529 119.44C112.415 118.845 111.101 118.567 109.708 118.647C106.166 118.845 102.624 118.091 99.4796 116.424L88.3354 110.63C86.3454 109.598 85.3902 107.296 86.0668 105.233C86.5046 104.002 87.42 103.01 88.614 102.534C88.7732 102.455 88.9324 102.415 89.0916 102.375C87.1812 101.185 86.3454 98.8035 87.221 96.7795C87.7384 95.6286 88.6538 94.7952 89.808 94.3587C89.9274 94.319 90.007 94.2793 90.1264 94.2396C88.216 93.049 87.3802 90.6679 88.2558 88.6439C88.7732 87.493 89.6886 86.6596 90.8429 86.223C90.9623 86.1833 91.0419 86.1436 91.1613 86.1436L82.4847 81.6194C80.4947 80.5876 79.5394 78.2858 80.2161 76.2221C80.6539 74.9918 81.5693 73.9996 82.7633 73.5234C83.9573 73.0472 85.3106 73.0869 86.4648 73.7218L109.35 85.588L107.201 76.8174C106.922 75.7062 107.082 74.5553 107.599 73.5234C108.196 72.4122 109.151 71.5788 110.345 71.2216C112.693 70.4676 115.241 71.6978 116.116 73.9996L123.957 94.2793C124.594 95.8668 125.748 97.2161 127.261 98.0098L128.614 98.7242C129.768 99.3195 130.246 100.788 129.609 101.939L120.057 120.155C119.698 120.988 118.863 121.464 117.987 121.464ZM110.186 117.456C111.579 117.456 112.932 117.774 114.087 118.369L117.43 120.115C117.708 120.274 118.027 120.274 118.345 120.194C118.664 120.115 118.902 119.877 119.062 119.599L128.614 101.383C128.932 100.788 128.693 100.074 128.096 99.756L126.743 99.0417C124.952 98.1289 123.599 96.5811 122.843 94.7159L115.002 74.4362C114.325 72.7297 112.455 71.8169 110.703 72.3725C109.828 72.6503 109.072 73.2456 108.634 74.079C108.236 74.8331 108.116 75.7062 108.355 76.5396L110.823 86.5802C110.863 86.8183 110.783 87.0564 110.624 87.1755C110.425 87.3342 110.186 87.3342 109.987 87.2152L86.1066 74.7537C85.2708 74.3171 84.2757 74.2775 83.4001 74.6346C82.4847 74.9918 81.8479 75.7062 81.5295 76.6189C81.0121 78.127 81.7285 79.7938 83.2011 80.5876L94.5045 86.5008C94.7831 86.6596 94.9025 87.0167 94.7433 87.2945C94.5841 87.5723 94.2259 87.6914 93.9473 87.5327C93.1513 87.1358 92.1961 87.0564 91.3603 87.3342C90.4847 87.6517 89.808 88.247 89.4498 89.0804C88.7732 90.6282 89.4896 92.4934 91.0419 93.3268L93.4299 94.5571C93.7085 94.7159 93.8279 95.073 93.6687 95.3508C93.5095 95.6286 93.1513 95.7477 92.8727 95.589C92.0767 95.1921 91.1215 95.1127 90.2857 95.4302C89.41 95.7477 88.7334 96.343 88.3752 97.1764C87.6986 98.7242 88.415 100.589 89.9672 101.423L92.3553 102.653C92.6339 102.812 92.7533 103.169 92.5941 103.447C92.4349 103.725 92.0767 103.844 91.7981 103.685C90.9623 103.248 89.9672 103.209 89.0916 103.566C88.1762 103.923 87.5394 104.637 87.221 105.55C86.7036 107.058 87.42 108.725 88.8926 109.519L100.037 115.313C102.982 116.861 106.325 117.575 109.669 117.377C109.828 117.456 110.027 117.456 110.186 117.456Z" fill="#6A4BFF"/>
<path d="M95.0616 105.391C94.982 105.391 94.8626 105.352 94.783 105.312L91.7979 103.764C91.5193 103.605 91.3999 103.248 91.5591 102.97C91.7183 102.693 92.0765 102.573 92.3551 102.732L95.3402 104.28C95.6188 104.439 95.7382 104.796 95.579 105.074C95.4994 105.272 95.3004 105.391 95.0616 105.391Z" fill="#6A4BFF"/>
<path d="M96.1365 97.2955C96.0569 97.2955 95.9375 97.2558 95.8579 97.2161L92.8729 95.6684C92.5943 95.5096 92.4748 95.1525 92.6341 94.8746C92.7933 94.5968 93.1515 94.4778 93.4301 94.6365L96.4151 96.1843C96.6937 96.343 96.8131 96.7002 96.6539 96.978C96.5743 97.1764 96.3355 97.2955 96.1365 97.2955Z" fill="#6A4BFF"/>
<path d="M97.211 89.1988C97.1314 89.1988 97.012 89.1591 96.9324 89.1195L93.9473 87.5717C93.6687 87.4129 93.5493 87.0558 93.7085 86.778C93.8677 86.5002 94.2259 86.3811 94.5045 86.5399L97.4896 88.0876C97.7682 88.2464 97.8876 88.6035 97.7284 88.8813C97.609 89.0798 97.41 89.1988 97.211 89.1988Z" fill="#6A4BFF"/>
<path opacity="0.3" d="M117.987 121.464C117.629 121.464 117.231 121.385 116.873 121.187L113.529 119.44C112.415 118.845 111.101 118.567 109.708 118.647C106.166 118.845 102.624 118.091 99.4796 116.424L88.3354 110.63C86.3454 109.598 85.3902 107.296 86.0668 105.233C86.5046 104.002 87.42 103.01 88.614 102.534C88.7732 102.455 88.9324 102.415 89.0916 102.375C87.1812 101.185 86.3454 98.8035 87.221 96.7795C87.7384 95.6286 88.6538 94.7952 89.808 94.3587C89.9274 94.319 90.007 94.2793 90.1264 94.2396C88.216 93.049 87.3802 90.6679 88.2558 88.6439C88.7732 87.493 89.6886 86.6596 90.8429 86.223C90.9623 86.1833 91.0419 86.1436 91.1613 86.1436L82.4847 81.6194C80.4947 80.5876 79.5394 78.2858 80.2161 76.2221C80.6539 74.9918 81.5693 73.9996 82.7633 73.5234C83.9573 73.0472 85.3106 73.0869 86.4648 73.7218L109.35 85.588L107.201 76.8174C106.922 75.7062 107.082 74.5553 107.599 73.5234C108.196 72.4122 109.151 71.5788 110.345 71.2216C112.693 70.4676 115.241 71.6978 116.116 73.9996L123.957 94.2793C124.594 95.8668 125.748 97.2161 127.261 98.0098L128.614 98.7242C129.768 99.3195 130.246 100.788 129.609 101.939L120.057 120.155C119.698 120.988 118.863 121.464 117.987 121.464ZM110.186 117.456C111.579 117.456 112.932 117.774 114.087 118.369L117.43 120.115C117.708 120.274 118.027 120.274 118.345 120.194C118.664 120.115 118.902 119.877 119.062 119.599L128.614 101.383C128.932 100.788 128.693 100.074 128.096 99.756L126.743 99.0417C124.952 98.1289 123.599 96.5811 122.843 94.7159L115.002 74.4362C114.325 72.7297 112.455 71.8169 110.703 72.3725C109.828 72.6503 109.072 73.2456 108.634 74.079C108.236 74.8331 108.116 75.7062 108.355 76.5396L110.823 86.5802C110.863 86.8183 110.783 87.0564 110.624 87.1755C110.425 87.3342 110.186 87.3342 109.987 87.2152L86.1066 74.7537C85.2708 74.3171 84.2757 74.2775 83.4001 74.6346C82.4847 74.9918 81.8479 75.7062 81.5295 76.6189C81.0121 78.127 81.7285 79.7938 83.2011 80.5876L94.5045 86.5008C94.7831 86.6596 94.9025 87.0167 94.7433 87.2945C94.5841 87.5723 94.2259 87.6914 93.9473 87.5327C93.1513 87.1358 92.1961 87.0564 91.3603 87.3342C90.4847 87.6517 89.808 88.247 89.4498 89.0804C88.7732 90.6282 89.4896 92.4934 91.0419 93.3268L93.4299 94.5571C93.7085 94.7159 93.8279 95.073 93.6687 95.3508C93.5095 95.6286 93.1513 95.7477 92.8727 95.589C92.0767 95.1921 91.1215 95.1127 90.2857 95.4302C89.41 95.7477 88.7334 96.343 88.3752 97.1764C87.6986 98.7242 88.415 100.589 89.9672 101.423L92.3553 102.653C92.6339 102.812 92.7533 103.169 92.5941 103.447C92.4349 103.725 92.0767 103.844 91.7981 103.685C90.9623 103.248 89.9672 103.209 89.0916 103.566C88.1762 103.923 87.5394 104.637 87.221 105.55C86.7036 107.058 87.42 108.725 88.8926 109.519L100.037 115.313C102.982 116.861 106.325 117.575 109.669 117.377C109.828 117.456 110.027 117.456 110.186 117.456Z" fill="black"/>
</svg>
