<svg width="1628" height="810" viewBox="0 0 1628 810" fill="none" xmlns="http://www.w3.org/2000/svg">
<g opacity="0.3" clipPath="url(#clip0_2488_22375)">
<path d="M309.06 412.33L272.52 391.23V349L309.06 327.9L345.61 349V391.2L309.06 412.33ZM274.15 390.28L309.06 410.44L344 390.28V350L309.09 329.85L274.15 350V390.28Z" fill="url(#paint0_linear_2488_22375)"/>
<path d="M408.56 351.72L372 330.62V288.43L408.54 267.33L445.09 288.43V330.63L408.56 351.72ZM373.65 329.67L408.56 349.83L443.47 329.67V289.37L408.56 269.22L373.65 289.37V329.67Z" fill="url(#paint1_linear_2488_22375)"/>
<path d="M372.362 329.446L344.321 348.797L345.252 350.147L373.293 330.795L372.362 329.446Z" fill="url(#paint2_linear_2488_22375)"/>
<path d="M433.814 326.62L409.726 340.905L410.562 342.315L434.651 328.03L433.814 326.62Z" fill="url(#paint3_linear_2488_22375)"/>
<path d="M333.725 386.595L309.678 400.958L310.519 402.366L334.566 388.003L333.725 386.595Z" fill="url(#paint4_linear_2488_22375)"/>
<path d="M778.14 483.88L741.59 462.78V420.58L778.14 399.48L814.68 420.58V462.78L778.14 483.88ZM743.23 461.88L778.14 482L813.05 461.85V421.53L778.14 401.37L743.23 421.53V461.88Z" fill="url(#paint5_linear_2488_22375)"/>
<path d="M877.64 423.28L841.09 402.18V360L877.64 338.9L914.18 360V402.2L877.64 423.28ZM842.73 401.28L877.64 421.44L912.55 401.28V360.93L877.64 340.77L842.73 360.93V401.28Z" fill="url(#paint6_linear_2488_22375)"/>
<path d="M841.423 400.951L813.382 420.302L814.313 421.652L842.354 402.301L841.423 400.951Z" fill="url(#paint7_linear_2488_22375)"/>
<path d="M903.064 396.272L879.017 410.636L879.858 412.044L903.905 397.68L903.064 396.272Z" fill="url(#paint8_linear_2488_22375)"/>
<path d="M802.819 461.303L778.736 475.586L779.572 476.997L803.656 462.714L802.819 461.303Z" fill="url(#paint9_linear_2488_22375)"/>
<path d="M1059.57 299.36L1023 278.26V236.07L1059.57 215L1096.11 236.1V278.28L1059.57 299.36ZM1024.66 277.36L1059.57 297.52L1094.48 277.36V237L1059.57 216.85L1024.66 237V277.36Z" fill="url(#paint10_linear_2488_22375)"/>
<path d="M1159.06 238.76L1122.52 217.67V175.47L1159.06 154.37L1195.59 175.47V217.67L1159.06 238.76ZM1124.17 216.76L1159.06 236.91L1194 216.72V176.41L1159.09 156.25L1124.2 176.41L1124.17 216.76Z" fill="url(#paint11_linear_2488_22375)"/>
<path d="M1122.81 216.424L1094.77 235.775L1095.7 237.125L1123.75 217.774L1122.81 216.424Z" fill="url(#paint12_linear_2488_22375)"/>
<path d="M1184.5 211.763L1160.45 226.126L1161.29 227.534L1185.34 213.171L1184.5 211.763Z" fill="url(#paint13_linear_2488_22375)"/>
<path d="M1084.25 273.667L1060.21 288.031L1061.05 289.439L1085.1 275.075L1084.25 273.667Z" fill="url(#paint14_linear_2488_22375)"/>
<path d="M-6.51982 598.24L-43.0698 577.14V534.94L-6.51982 513.84L30.0002 534.94V577.14L-6.51982 598.24ZM-41.4298 576.24L-6.51982 596.39L28.3902 576.24V535.88L-6.51982 515.73L-41.4298 535.88V576.24Z" fill="url(#paint15_linear_2488_22375)"/>
<path d="M93 537.62L56.46 516.53V474.33L93 453.24L129.55 474.33V516.54L93 537.62ZM58.1 515.62L93 535.73L127.9 515.59V475.28L93 455.13L58.11 475.28L58.1 515.62Z" fill="url(#paint16_linear_2488_22375)"/>
<path d="M56.8212 515.357L28.7803 534.708L29.7118 536.058L57.7527 516.707L56.8212 515.357Z" fill="url(#paint17_linear_2488_22375)"/>
<path d="M118.38 510.59L94.333 524.954L95.174 526.362L119.221 511.998L118.38 510.59Z" fill="url(#paint18_linear_2488_22375)"/>
<path d="M18.1397 572.486L-5.90723 586.85L-5.06624 588.258L18.9807 573.894L18.1397 572.486Z" fill="url(#paint19_linear_2488_22375)"/>
<path d="M518 809.72L481.46 788.62V746.42L518 725.32L554.55 746.42V788.62L518 809.72ZM483.1 787.72L518 807.83L552.91 787.68V747.37L518 727.21L483.1 747.37V787.72Z" fill="url(#paint20_linear_2488_22375)"/>
<path d="M617.46 749.12L580.91 728V685.8L617.46 664.7L654 685.82V728L617.46 749.12ZM582.55 727.12L617.46 747.27L652.37 727.12V686.77L617.46 666.61L582.55 686.77V727.12Z" fill="url(#paint21_linear_2488_22375)"/>
<path d="M581.286 726.804L553.245 746.155L554.177 747.505L582.217 728.154L581.286 726.804Z" fill="url(#paint22_linear_2488_22375)"/>
<path d="M641.885 725.186L617.801 739.469L618.638 740.879L642.721 726.597L641.885 725.186Z" fill="url(#paint23_linear_2488_22375)"/>
<path d="M542.65 783.892L518.61 798.268L519.452 799.675L543.492 785.299L542.65 783.892Z" fill="url(#paint24_linear_2488_22375)"/>
<path d="M603.43 145L566.89 123.9V81.7001L603.43 60.6001L640 81.7001V123.9L603.43 145ZM568.52 123L603.43 143.16L638.34 123V82.6401L603.43 62.4901L568.52 82.6401V123Z" fill="url(#paint25_linear_2488_22375)"/>
<path d="M702.94 84.4L666.39 63.3V21.1L702.94 0L739.48 21.1V63.3L702.94 84.4ZM668 62.35L702.91 82.51L737.82 62.35V22L702.94 1.89L668 22V62.35Z" fill="url(#paint26_linear_2488_22375)"/>
<path d="M666.717 62.0974L638.676 81.4487L639.608 82.7985L667.649 63.4472L666.717 62.0974Z" fill="url(#paint27_linear_2488_22375)"/>
<path d="M728.372 57.3686L704.325 71.7319L705.166 73.1399L729.213 58.7766L728.372 57.3686Z" fill="url(#paint28_linear_2488_22375)"/>
<path d="M628.131 119.271L604.084 133.635L604.925 135.043L628.972 120.679L628.131 119.271Z" fill="url(#paint29_linear_2488_22375)"/>
<path d="M1093.05 33.3799L1129.6 54.4799V96.6799L1093.05 117.77L1056.51 96.6799V54.4799L1093.05 33.3799ZM1127.96 55.3799L1093.05 35.2199L1058.13 55.3799V95.7299L1093 115.89L1128 95.7299L1127.96 55.3799Z" fill="url(#paint30_linear_2488_22375)"/>
<path d="M993.55 94L1030.1 115.1V157.29L993.55 178.39L957 157.27V115.08L993.55 94ZM1028.46 116L993.55 95.85L958.64 116V156.31L993.55 176.47L1028.46 156.31V116Z" fill="url(#paint31_linear_2488_22375)"/>
<path d="M1056.81 95.4538L1028.77 114.805L1029.7 116.155L1057.74 96.8036L1056.81 95.4538Z" fill="url(#paint32_linear_2488_22375)"/>
<path d="M991.383 105.34L967.336 119.704L968.177 121.112L992.224 106.748L991.383 105.34Z" fill="url(#paint33_linear_2488_22375)"/>
<path d="M1093.2 46.7687L1069.11 61.0513L1069.95 62.4619L1094.03 48.1793L1093.2 46.7687Z" fill="url(#paint34_linear_2488_22375)"/>
<path d="M862.67 749.4L826.45 728.48V686.65L862.67 665.75L898.9 686.66V728.48L862.67 749.4ZM828.08 727.54L862.67 747.54L897.26 727.54V687.6L862.67 667.6L828.08 687.6V727.54Z" fill="url(#paint35_linear_2488_22375)"/>
<path d="M843.85 696.69V718.44L862.67 729.31L881.5 718.44V696.69L862.67 685.82L843.85 696.69Z" fill="url(#paint36_linear_2488_22375)"/>
<path d="M386.72 768.17L350.5 747.25V705.42L386.72 684.5L423 705.42V747.25L386.72 768.17ZM352.13 746.31L386.72 766.31L421.31 746.31V706.37L386.72 686.37L352.13 706.37V746.31Z" fill="url(#paint37_linear_2488_22375)"/>
<path d="M367.9 715.46V737.21L386.72 748.08L405.55 737.21V715.46L386.72 704.59L367.9 715.46Z" fill="url(#paint38_linear_2488_22375)"/>
<path d="M361.88 272L325.65 251.08V209.28L361.88 188.36L398.13 209.28V251.11L361.88 272ZM327.29 250.14L361.88 270.14L396.47 250.14V210.22L361.88 190.22L327.29 210.22V250.14Z" fill="url(#paint39_linear_2488_22375)"/>
<path d="M343.06 219.32V241.06L361.88 251.94L380.71 241.06V219.32L361.88 208.45L343.06 219.32Z" fill="url(#paint40_linear_2488_22375)"/>
<path d="M516.34 351.36L480.11 330.44V288.61L516.34 267.69L552.56 288.61V330.44L516.34 351.36ZM481.75 329.5L516.34 349.5L550.93 329.5V289.55L516.34 269.55L481.75 289.55V329.5Z" fill="url(#paint41_linear_2488_22375)"/>
<path d="M497.51 298.66V320.4L516.34 331.27L535.16 320.4V298.66L516.34 287.79L497.51 298.66Z" fill="url(#paint42_linear_2488_22375)"/>
<path d="M466.25 717.75L391.75 674.75V588.75L392.16 588.52L466.25 545.74L540.75 588.74V674.74L540.34 674.97L466.25 717.75ZM393.4 673.75L466.25 715.82L539.11 673.75V589.66L466.25 547.59L393.4 589.66V673.75Z" fill="url(#paint43_linear_2488_22375)"/>
<path d="M109.46 289.76L73.23 268.85V227L109.46 206.09L145.69 227V268.84L109.46 289.76ZM74.87 267.9L109.46 287.9L144.05 267.9V228L109.46 208L74.87 228V267.9Z" fill="url(#paint44_linear_2488_22375)"/>
<path d="M133.3 470.51L96.6201 449.33V407L96.8201 406.89L133.3 385.8L170 407V449.35L169.8 449.47L133.3 470.51ZM97.4101 448.86L133.3 469.58L169.19 448.86V407.42L133.3 386.7L97.4101 407.42V448.86Z" fill="url(#paint45_linear_2488_22375)"/>
<path d="M171.91 404.86L135.23 383.69V341.31L135.43 341.19L171.91 320.13L208.6 341.31V383.66L208.4 383.77L171.91 404.86ZM136 383.21L171.89 403.93L207.78 383.21V341.78L171.89 321.06L136 341.78V383.21Z" fill="url(#paint46_linear_2488_22375)"/>
<path d="M171.91 537.07L135.23 515.89V473.55L135.43 473.43L171.91 452.36L208.6 473.54V515.89L208.4 516L171.91 537.07ZM136 515.42L171.89 536.14L207.78 515.42V474L171.89 453.28L136 474V515.42Z" fill="url(#paint47_linear_2488_22375)"/>
<path d="M1034.07 522.79L997.82 501.88V460L1034.07 439.09L1070.29 460V501.84L1034.07 522.79ZM999.47 500.93L1034.07 520.93L1068.66 500.93V461L1034.07 441L999.47 461V500.93Z" fill="url(#paint48_linear_2488_22375)"/>
<path d="M1034.07 503.85L1014.24 492.4V469.51L1034.07 458.07L1053.89 469.51V492.4L1034.07 503.85ZM1016.23 491.26L1034.07 501.55L1051.9 491.26V470.66L1034.07 460.37L1016.23 470.66V491.26Z" fill="url(#paint49_linear_2488_22375)"/>
<path d="M901.11 671.91C900.078 671.91 899.068 671.604 898.21 671.03C897.352 670.457 896.683 669.642 896.287 668.688C895.892 667.734 895.789 666.684 895.99 665.672C896.192 664.659 896.689 663.729 897.419 662.999C898.149 662.269 899.079 661.772 900.092 661.571C901.104 661.369 902.154 661.472 903.108 661.868C904.062 662.263 904.877 662.932 905.45 663.79C906.024 664.649 906.33 665.658 906.33 666.69C906.33 667.376 906.195 668.055 905.933 668.688C905.67 669.321 905.286 669.897 904.801 670.381C904.317 670.866 903.741 671.251 903.108 671.513C902.474 671.775 901.796 671.91 901.11 671.91V671.91ZM901.11 663.11C900.4 663.11 899.706 663.321 899.116 663.715C898.525 664.11 898.065 664.67 897.793 665.326C897.522 665.982 897.451 666.704 897.589 667.401C897.728 668.097 898.07 668.737 898.572 669.239C899.074 669.741 899.713 670.083 900.41 670.221C901.106 670.36 901.828 670.289 902.484 670.017C903.14 669.745 903.701 669.285 904.095 668.695C904.49 668.104 904.7 667.41 904.7 666.7C904.7 665.748 904.322 664.835 903.649 664.162C902.975 663.488 902.062 663.11 901.11 663.11V663.11Z" fill="url(#paint50_linear_2488_22375)"/>
<path d="M684.94 677.49C683.908 677.49 682.899 677.184 682.04 676.61C681.182 676.037 680.513 675.221 680.118 674.267C679.722 673.314 679.619 672.264 679.821 671.251C680.022 670.239 680.519 669.309 681.249 668.579C681.979 667.849 682.909 667.352 683.922 667.15C684.934 666.949 685.984 667.052 686.938 667.447C687.892 667.842 688.707 668.511 689.28 669.37C689.854 670.228 690.16 671.237 690.16 672.27C690.16 673.654 689.61 674.982 688.631 675.961C687.652 676.94 686.325 677.49 684.94 677.49V677.49ZM684.94 668.69C684.23 668.69 683.536 668.9 682.946 669.295C682.355 669.689 681.895 670.25 681.623 670.906C681.352 671.562 681.281 672.284 681.419 672.98C681.558 673.677 681.9 674.316 682.402 674.818C682.904 675.32 683.543 675.662 684.24 675.801C684.936 675.939 685.658 675.868 686.314 675.597C686.97 675.325 687.531 674.865 687.925 674.274C688.32 673.684 688.53 672.99 688.53 672.28C688.53 671.808 688.437 671.342 688.257 670.906C688.077 670.47 687.812 670.075 687.479 669.741C687.145 669.408 686.75 669.143 686.314 668.963C685.878 668.783 685.412 668.69 684.94 668.69Z" fill="url(#paint51_linear_2488_22375)"/>
<path d="M829.94 556.74C828.907 556.74 827.898 556.433 827.039 555.859C826.18 555.285 825.511 554.47 825.117 553.515C824.722 552.561 824.619 551.511 824.821 550.498C825.023 549.485 825.522 548.555 826.253 547.825C826.984 547.096 827.915 546.599 828.928 546.399C829.941 546.199 830.991 546.303 831.945 546.7C832.898 547.097 833.713 547.767 834.285 548.627C834.858 549.487 835.162 550.497 835.16 551.53C835.158 552.913 834.606 554.238 833.628 555.214C832.649 556.191 831.323 556.74 829.94 556.74ZM829.94 547.94C829.23 547.94 828.536 548.15 827.946 548.545C827.355 548.939 826.895 549.5 826.623 550.156C826.352 550.812 826.281 551.534 826.419 552.23C826.558 552.927 826.9 553.566 827.402 554.068C827.904 554.57 828.543 554.912 829.24 555.051C829.936 555.189 830.658 555.118 831.314 554.847C831.97 554.575 832.531 554.115 832.925 553.524C833.32 552.934 833.53 552.24 833.53 551.53C833.53 550.578 833.152 549.665 832.479 548.991C831.805 548.318 830.892 547.94 829.94 547.94V547.94Z" fill="url(#paint52_linear_2488_22375)"/>
<path d="M830.25 563.79H828.61V584.43H830.25V563.79Z" fill="url(#paint53_linear_2488_22375)"/>
<path d="M829.43 667.9L792.88 646.8V604.58L829.43 583.48L866 604.58V646.78L829.43 667.9ZM794.52 645.9L829.43 666L864.33 645.84V605.53L829.43 585.37L794.52 605.53V645.9Z" fill="url(#paint54_linear_2488_22375)"/>
<path d="M757.78 667.9L721.24 646.8V604.58L757.78 583.48L794.33 604.58V646.78L757.78 667.9ZM722.87 645.9L757.78 666L792.69 645.84V605.53L757.78 585.37L722.87 605.53V645.9Z" fill="url(#paint55_linear_2488_22375)"/>
<path d="M865.552 645.568L864.705 646.972L891.694 663.273L892.542 661.869L865.552 645.568Z" fill="url(#paint56_linear_2488_22375)"/>
<path d="M721.588 645.548L693.547 664.899L694.478 666.249L722.519 646.897L721.588 645.548Z" fill="url(#paint57_linear_2488_22375)"/>
<path d="M756.299 593.543L732.252 607.907L733.093 609.315L757.14 594.951L756.299 593.543Z" fill="url(#paint58_linear_2488_22375)"/>
<path d="M508.42 157.48C507.388 157.48 506.379 157.174 505.52 156.6C504.662 156.027 503.993 155.211 503.598 154.258C503.202 153.304 503.099 152.254 503.3 151.242C503.502 150.229 503.999 149.299 504.729 148.569C505.459 147.839 506.389 147.342 507.402 147.14C508.414 146.939 509.464 147.042 510.418 147.437C511.372 147.832 512.187 148.502 512.76 149.36C513.334 150.218 513.64 151.228 513.64 152.26C513.64 153.644 513.09 154.972 512.111 155.951C511.132 156.93 509.805 157.48 508.42 157.48ZM508.42 148.68C507.71 148.68 507.015 148.891 506.425 149.286C505.834 149.681 505.374 150.242 505.103 150.899C504.831 151.555 504.761 152.277 504.9 152.974C505.039 153.671 505.382 154.31 505.885 154.812C506.388 155.314 507.029 155.655 507.726 155.792C508.423 155.93 509.145 155.857 509.801 155.584C510.457 155.311 511.017 154.849 511.41 154.257C511.803 153.666 512.012 152.97 512.01 152.26C512.01 151.789 511.917 151.323 511.737 150.888C511.556 150.453 511.292 150.058 510.958 149.725C510.625 149.392 510.229 149.129 509.793 148.95C509.358 148.77 508.891 148.679 508.42 148.68V148.68Z" fill="url(#paint59_linear_2488_22375)"/>
<path d="M292.26 163.06C291.227 163.062 290.217 162.758 289.357 162.185C288.497 161.613 287.827 160.798 287.43 159.845C287.033 158.891 286.929 157.841 287.129 156.828C287.329 155.815 287.826 154.884 288.555 154.153C289.285 153.422 290.215 152.923 291.228 152.721C292.241 152.519 293.291 152.622 294.245 153.017C295.199 153.411 296.015 154.08 296.589 154.939C297.163 155.798 297.47 156.807 297.47 157.84C297.47 159.223 296.921 160.549 295.944 161.528C294.968 162.506 293.642 163.057 292.26 163.06V163.06ZM292.26 154.26C291.549 154.258 290.853 154.467 290.262 154.861C289.67 155.255 289.208 155.815 288.935 156.472C288.662 157.128 288.59 157.851 288.728 158.548C288.866 159.245 289.209 159.886 289.711 160.389C290.214 160.891 290.855 161.233 291.552 161.372C292.249 161.51 292.972 161.438 293.628 161.165C294.285 160.892 294.845 160.43 295.239 159.838C295.633 159.246 295.842 158.551 295.84 157.84C295.84 156.891 295.463 155.98 294.791 155.309C294.12 154.637 293.209 154.26 292.26 154.26V154.26Z" fill="url(#paint60_linear_2488_22375)"/>
<path d="M437.25 42.3101C436.217 42.3101 435.208 42.004 434.35 41.4304C433.491 40.8568 432.822 40.0416 432.427 39.0877C432.032 38.1339 431.929 37.0843 432.13 36.0717C432.332 35.0592 432.829 34.1291 433.559 33.399C434.289 32.669 435.219 32.1718 436.231 31.9704C437.244 31.769 438.294 31.8724 439.247 32.2675C440.201 32.6626 441.016 33.3316 441.59 34.19C442.164 35.0485 442.47 36.0577 442.47 37.0901C442.467 38.4737 441.916 39.7999 440.938 40.7783C439.96 41.7567 438.633 42.3075 437.25 42.3101V42.3101ZM437.25 33.5101C436.54 33.5101 435.846 33.7207 435.255 34.1151C434.665 34.5096 434.205 35.0703 433.933 35.7263C433.661 36.3823 433.59 37.1041 433.729 37.8005C433.867 38.4969 434.209 39.1366 434.711 39.6386C435.213 40.1407 435.853 40.4826 436.549 40.6211C437.246 40.7597 437.968 40.6886 438.624 40.4168C439.28 40.1451 439.84 39.685 440.235 39.0946C440.629 38.5042 440.84 37.8102 440.84 37.1001C440.84 36.148 440.462 35.2349 439.788 34.5616C439.115 33.8883 438.202 33.5101 437.25 33.5101Z" fill="url(#paint61_linear_2488_22375)"/>
<path d="M437.56 49.3501H435.92V69.9901H437.56V49.3501Z" fill="url(#paint62_linear_2488_22375)"/>
<path d="M436.74 153.45L400.19 132.35V90.1498L436.74 69.0498L473.28 90.1498V132.35L436.74 153.45ZM401.83 131.45L436.74 151.6L471.65 131.45V91.0898L436.74 70.9398L401.83 91.0898V131.45Z" fill="url(#paint63_linear_2488_22375)"/>
<path d="M365.11 153.45L328.56 132.35V90.1498L365.11 69.0498L401.66 90.1498V132.35L365.11 153.45ZM330.2 131.45L365.11 151.6L400 131.41V91.0898L365.11 70.9398L330.2 91.0898V131.45Z" fill="url(#paint64_linear_2488_22375)"/>
<path d="M472.879 131.156L472.031 132.56L499.021 148.86L499.869 147.456L472.879 131.156Z" fill="url(#paint65_linear_2488_22375)"/>
<path d="M327.951 129.947L300.007 149.368L300.937 150.707L328.881 131.285L327.951 129.947Z" fill="url(#paint66_linear_2488_22375)"/>
<path d="M363.63 79.0727L339.583 93.436L340.424 94.844L364.471 80.4807L363.63 79.0727Z" fill="url(#paint67_linear_2488_22375)"/>
<path d="M571 181.49C569.968 181.49 568.959 181.184 568.1 180.61C567.242 180.037 566.573 179.221 566.178 178.267C565.783 177.314 565.679 176.264 565.881 175.251C566.082 174.239 566.579 173.309 567.309 172.579C568.039 171.849 568.969 171.352 569.982 171.15C570.994 170.949 572.044 171.052 572.998 171.447C573.952 171.842 574.767 172.511 575.341 173.37C575.914 174.228 576.22 175.237 576.22 176.27C576.22 177.654 575.67 178.982 574.691 179.961C573.712 180.94 572.385 181.49 571 181.49ZM571 172.69C570.29 172.69 569.596 172.9 569.006 173.295C568.415 173.689 567.955 174.25 567.684 174.906C567.412 175.562 567.341 176.284 567.479 176.98C567.618 177.677 567.96 178.316 568.462 178.818C568.964 179.32 569.603 179.662 570.3 179.801C570.996 179.939 571.718 179.868 572.374 179.597C573.03 179.325 573.591 178.865 573.985 178.274C574.38 177.684 574.59 176.99 574.59 176.28C574.59 175.328 574.212 174.415 573.539 173.741C572.866 173.068 571.952 172.69 571 172.69Z" fill="url(#paint68_linear_2488_22375)"/>
<path d="M642.12 296.65C641.088 296.65 640.079 296.344 639.221 295.771C638.363 295.198 637.694 294.383 637.298 293.43C636.903 292.477 636.799 291.428 636.999 290.415C637.2 289.403 637.696 288.473 638.425 287.742C639.154 287.012 640.083 286.514 641.095 286.311C642.107 286.109 643.157 286.211 644.111 286.604C645.065 286.998 645.881 287.665 646.455 288.523C647.03 289.38 647.338 290.388 647.34 291.42C647.343 292.107 647.209 292.787 646.948 293.422C646.687 294.057 646.303 294.634 645.817 295.12C645.332 295.607 644.756 295.992 644.121 296.254C643.487 296.517 642.807 296.651 642.12 296.65V296.65ZM642.12 287.85C641.41 287.85 640.716 288.061 640.125 288.455C639.535 288.849 639.075 289.41 638.803 290.066C638.531 290.722 638.46 291.444 638.599 292.14C638.737 292.837 639.079 293.476 639.581 293.978C640.083 294.481 640.723 294.822 641.42 294.961C642.116 295.1 642.838 295.028 643.494 294.757C644.15 294.485 644.71 294.025 645.105 293.434C645.499 292.844 645.71 292.15 645.71 291.44C645.71 290.488 645.332 289.575 644.658 288.901C643.985 288.228 643.072 287.85 642.12 287.85Z" fill="url(#paint69_linear_2488_22375)"/>
<path d="M643.46 258.53H641.82V279.17H643.46V258.53Z" fill="url(#paint70_linear_2488_22375)"/>
<path d="M642.64 259.48L606.09 238.38V196.18L642.64 175.08L679.18 196.18V238.38L642.64 259.48ZM607.72 237.43L642.63 257.59L677.54 237.43V197.13L642.63 177L607.72 197.16V237.43Z" fill="url(#paint71_linear_2488_22375)"/>
<path d="M714.28 259.48L677.73 238.38V196.18L714.28 175.08L750.82 196.18V238.38L714.28 259.48ZM679.37 237.48L714.28 257.63L749.19 237.48V197.13L714.28 177L679.37 197.16V237.48Z" fill="url(#paint72_linear_2488_22375)"/>
<path d="M813.78 198.88L777.23 177.78V135.58L813.78 114.49L850.33 135.58V177.78L813.78 198.88ZM778.87 176.88L813.78 197L848.69 176.84V136.52L813.78 116.37L778.87 136.52V176.88Z" fill="url(#paint73_linear_2488_22375)"/>
<path d="M583.042 177.482L582.193 178.886L609.311 195.283L610.16 193.88L583.042 177.482Z" fill="url(#paint74_linear_2488_22375)"/>
<path d="M777.558 176.57L749.518 195.921L750.449 197.271L778.49 177.919L777.558 176.57Z" fill="url(#paint75_linear_2488_22375)"/>
<path d="M839.222 171.865L815.175 186.229L816.016 187.636L840.063 173.273L839.222 171.865Z" fill="url(#paint76_linear_2488_22375)"/>
<path d="M738.968 233.765L714.921 248.128L715.762 249.536L739.809 235.173L738.968 233.765Z" fill="url(#paint77_linear_2488_22375)"/>
<path d="M1.49999 250.36C0.467997 250.362 -0.541419 250.058 -1.40072 249.486C-2.26002 248.915 -2.93064 248.102 -3.32784 247.149C-3.72504 246.197 -3.83101 245.148 -3.63234 244.135C-3.43367 243.122 -2.93928 242.191 -2.21165 241.459C-1.48402 240.728 -0.555802 240.228 0.455728 240.023C1.46726 239.819 2.5167 239.919 3.47145 240.311C4.42621 240.702 5.24343 241.368 5.81985 242.224C6.39627 243.08 6.70603 244.088 6.70998 245.12C6.71262 245.806 6.57987 246.486 6.31934 247.121C6.05882 247.756 5.67563 248.334 5.1917 248.82C4.70778 249.307 4.13262 249.694 3.49915 249.958C2.86568 250.222 2.18633 250.359 1.49999 250.36V250.36ZM1.49999 241.56C0.789951 241.56 0.0958592 241.77 -0.494513 242.165C-1.08489 242.559 -1.54502 243.12 -1.81674 243.776C-2.08846 244.432 -2.15955 245.154 -2.02103 245.85C-1.88251 246.547 -1.5406 247.186 -1.03853 247.688C-0.536457 248.19 0.103224 248.532 0.799615 248.671C1.49601 248.809 2.21783 248.738 2.87382 248.467C3.52981 248.195 4.09049 247.735 4.48496 247.144C4.87944 246.554 5.08998 245.86 5.08998 245.15C5.08998 244.198 4.71175 243.285 4.0385 242.611C3.36524 241.938 2.45211 241.56 1.49999 241.56V241.56Z" fill="url(#paint78_linear_2488_22375)"/>
<path d="M2.82994 212.24H1.18994V232.88H2.82994V212.24Z" fill="url(#paint79_linear_2488_22375)"/>
<path d="M1.99996 213.18L-34.54 192.08V149.88L1.99996 128.78L38.54 149.88V192.08L1.99996 213.18ZM-32.91 191.18L1.99996 211.29L36.9 191.14V150.83L1.99996 130.67L-32.9 150.83L-32.91 191.18Z" fill="url(#paint80_linear_2488_22375)"/>
<path d="M73.6499 213.18L37.1099 192.08V149.88L73.6499 128.78L110.2 149.88V192.08L73.6499 213.18ZM38.7399 191.18L73.6499 211.33L108.56 191.18V150.83L73.6499 130.67L38.7399 150.83V191.18Z" fill="url(#paint81_linear_2488_22375)"/>
<path d="M173.16 152.58L136.61 131.48V89.2799L173.16 68.1899L209.71 89.2799V131.48L173.16 152.58ZM138.25 130.58L173.16 150.73L208.07 130.58V90.2299L173.16 70.0699L138.25 90.2299V130.58Z" fill="url(#paint82_linear_2488_22375)"/>
<path d="M136.961 130.317L108.92 149.668L109.852 151.018L137.893 131.666L136.961 130.317Z" fill="url(#paint83_linear_2488_22375)"/>
<path d="M198.564 125.522L174.517 139.885L175.358 141.293L199.405 126.93L198.564 125.522Z" fill="url(#paint84_linear_2488_22375)"/>
<path d="M98.3277 187.426L74.2808 201.79L75.1217 203.198L99.1687 188.834L98.3277 187.426Z" fill="url(#paint85_linear_2488_22375)"/>
<path d="M444.65 414.86C443.618 414.86 442.609 414.554 441.75 413.98C440.892 413.407 440.223 412.591 439.828 411.638C439.432 410.684 439.329 409.634 439.53 408.622C439.732 407.609 440.229 406.679 440.959 405.949C441.689 405.219 442.619 404.722 443.632 404.52C444.644 404.319 445.694 404.422 446.648 404.817C447.602 405.212 448.417 405.881 448.99 406.74C449.564 407.598 449.87 408.608 449.87 409.64C449.865 411.023 449.313 412.347 448.335 413.325C447.358 414.303 446.033 414.855 444.65 414.86V414.86ZM444.65 406.06C443.94 406.06 443.246 406.27 442.656 406.665C442.065 407.059 441.605 407.62 441.333 408.276C441.062 408.932 440.991 409.654 441.129 410.35C441.268 411.047 441.61 411.686 442.112 412.188C442.614 412.691 443.253 413.032 443.95 413.171C444.646 413.309 445.368 413.238 446.024 412.967C446.68 412.695 447.241 412.235 447.635 411.644C448.03 411.054 448.24 410.36 448.24 409.65C448.24 408.698 447.862 407.785 447.189 407.111C446.515 406.438 445.602 406.06 444.65 406.06V406.06Z" fill="url(#paint86_linear_2488_22375)"/>
<path d="M515.82 530C514.785 530.008 513.771 529.708 512.907 529.138C512.043 528.569 511.368 527.755 510.967 526.801C510.566 525.846 510.458 524.795 510.657 523.779C510.855 522.763 511.351 521.829 512.082 521.096C512.812 520.363 513.744 519.863 514.759 519.661C515.774 519.458 516.826 519.562 517.782 519.959C518.738 520.356 519.554 521.028 520.127 521.89C520.7 522.752 521.004 523.765 521 524.8C520.995 526.174 520.448 527.491 519.478 528.464C518.509 529.438 517.194 529.989 515.82 530ZM515.82 521.2C515.11 521.2 514.416 521.411 513.826 521.805C513.235 522.199 512.775 522.76 512.503 523.416C512.232 524.072 512.161 524.794 512.299 525.49C512.438 526.187 512.779 526.826 513.282 527.328C513.784 527.83 514.423 528.172 515.12 528.311C515.816 528.449 516.538 528.378 517.194 528.107C517.85 527.835 518.411 527.375 518.805 526.784C519.2 526.194 519.41 525.5 519.41 524.79C519.411 524.318 519.319 523.851 519.139 523.415C518.959 522.978 518.695 522.582 518.361 522.248C518.028 521.915 517.632 521.65 517.195 521.471C516.759 521.291 516.292 521.199 515.82 521.2V521.2Z" fill="url(#paint87_linear_2488_22375)"/>
<path d="M517.16 491.9H515.52V512.54H517.16V491.9Z" fill="url(#paint88_linear_2488_22375)"/>
<path d="M516.34 492.85L479.79 471.75V429.55L516.34 408.45L552.88 429.55V471.75L516.34 492.85ZM481.43 470.8L516.34 491L551.24 470.84V430.5L516.34 410.34L481.43 430.5V470.8Z" fill="url(#paint89_linear_2488_22375)"/>
<path d="M588 492.85L551.46 471.75V429.55L588 408.45L624.55 429.55V471.75L588 492.85ZM553.07 470.8L588 491L622.91 470.84V430.5L588 410.34L553.07 430.5V470.8Z" fill="url(#paint90_linear_2488_22375)"/>
<path d="M687.48 432.25L650.94 411.15V368.94L687.48 347.84L724 368.94V411.15L687.48 432.25ZM652.58 410.25L687.49 430.41L722.4 410.25V369.89L687.49 349.74L652.58 369.89V410.25Z" fill="url(#paint91_linear_2488_22375)"/>
<path d="M454.035 412.994L453.187 414.397L480.177 430.698L481.024 429.294L454.035 412.994Z" fill="url(#paint92_linear_2488_22375)"/>
<path d="M651.281 409.929L623.24 429.28L624.171 430.63L652.212 411.279L651.281 409.929Z" fill="url(#paint93_linear_2488_22375)"/>
<path d="M712.922 408.032L688.838 422.314L689.675 423.725L713.758 409.442L712.922 408.032Z" fill="url(#paint94_linear_2488_22375)"/>
<path d="M612.319 470.333L588.23 484.618L589.066 486.029L613.155 471.743L612.319 470.333Z" fill="url(#paint95_linear_2488_22375)"/>
<path d="M85 624.42C83.968 624.422 82.9586 624.118 82.0993 623.546C81.24 622.975 80.5694 622.162 80.1722 621.209C79.775 620.257 79.669 619.208 79.8677 618.195C80.0663 617.182 80.5607 616.251 81.2883 615.52C82.016 614.788 82.9442 614.288 83.9557 614.083C84.9673 613.879 86.0167 613.979 86.9715 614.371C87.9262 614.762 88.7434 615.428 89.3199 616.284C89.8963 617.14 90.206 618.148 90.21 619.18C90.2126 620.565 89.6655 621.895 88.6888 622.878C87.712 623.86 86.3853 624.415 85 624.42V624.42ZM85 615.62C84.2899 615.62 83.5959 615.831 83.0055 616.225C82.4151 616.619 81.955 617.18 81.6833 617.836C81.4115 618.492 81.3404 619.214 81.479 619.91C81.6175 620.607 81.9594 621.246 82.4615 621.749C82.9635 622.251 83.6032 622.592 84.2996 622.731C84.996 622.87 85.7178 622.798 86.3738 622.527C87.0298 622.255 87.5905 621.795 87.985 621.204C88.3794 620.614 88.59 619.92 88.59 619.21C88.5913 618.738 88.4993 618.271 88.3194 617.835C88.1394 617.398 87.8751 617.002 87.5414 616.669C87.2078 616.335 86.8115 616.07 86.3754 615.891C85.9392 615.711 85.4718 615.619 85 615.62V615.62Z" fill="url(#paint96_linear_2488_22375)"/>
<path d="M156.16 739.58C155.128 739.58 154.118 739.274 153.26 738.7C152.401 738.127 151.732 737.312 151.337 736.358C150.942 735.404 150.839 734.354 151.04 733.342C151.242 732.329 151.739 731.399 152.469 730.669C153.199 729.939 154.129 729.442 155.142 729.24C156.154 729.039 157.204 729.142 158.158 729.537C159.111 729.933 159.927 730.602 160.5 731.46C161.074 732.318 161.38 733.328 161.38 734.36C161.38 735.745 160.83 737.072 159.851 738.051C158.872 739.03 157.544 739.58 156.16 739.58ZM156.16 730.78C155.45 730.78 154.756 730.991 154.165 731.385C153.575 731.78 153.115 732.34 152.843 732.996C152.572 733.652 152.5 734.374 152.639 735.071C152.777 735.767 153.119 736.407 153.621 736.909C154.124 737.411 154.763 737.753 155.46 737.891C156.156 738.03 156.878 737.959 157.534 737.687C158.19 737.415 158.75 736.955 159.145 736.365C159.539 735.774 159.75 735.08 159.75 734.37C159.75 733.899 159.657 733.432 159.477 732.996C159.296 732.561 159.032 732.165 158.698 731.832C158.365 731.498 157.969 731.234 157.534 731.053C157.098 730.873 156.631 730.78 156.16 730.78V730.78Z" fill="url(#paint97_linear_2488_22375)"/>
<path d="M157.5 701.46H155.86V722.1H157.5V701.46Z" fill="url(#paint98_linear_2488_22375)"/>
<path d="M156.68 702.4L120.13 681.3V639.11L156.68 618L193.22 639.1V681.3L156.68 702.4ZM121.78 680.4L156.69 700.56L191.6 680.4V640.05L156.69 619.9L121.78 640.05V680.4Z" fill="url(#paint99_linear_2488_22375)"/>
<path d="M228.32 702.4L191.77 681.3V639.11L228.32 618L264.87 639.1V681.3L228.32 702.4ZM193.41 680.4L228.32 700.56L263.23 680.4V640.05L228.32 619.9L193.41 640.05V680.4Z" fill="url(#paint100_linear_2488_22375)"/>
<path d="M327.83 641.8L291.28 620.71V578.51L327.83 557.41L364.37 578.51V620.71L327.83 641.8ZM292.92 619.8L327.83 639.95L362.73 619.8V579.45L327.83 559.3L292.92 579.45V619.8Z" fill="url(#paint101_linear_2488_22375)"/>
<path d="M94.3903 622.553L93.5425 623.957L120.532 640.257L121.38 638.854L94.3903 622.553Z" fill="url(#paint102_linear_2488_22375)"/>
<path d="M291.663 619.492L263.614 638.849L264.546 640.199L292.595 620.842L291.663 619.492Z" fill="url(#paint103_linear_2488_22375)"/>
<path d="M353.209 614.756L329.172 629.136L330.014 630.544L354.051 616.163L353.209 614.756Z" fill="url(#paint104_linear_2488_22375)"/>
<path d="M251.559 678.597L227.476 692.88L228.312 694.29L252.395 680.008L251.559 678.597Z" fill="url(#paint105_linear_2488_22375)"/>
<path d="M1290.87 412.33L1254.33 391.23V349L1290.87 327.9L1327.42 349V391.2L1290.87 412.33ZM1256 390.28L1290.91 410.44L1325.82 390.28V350L1290.91 329.85L1256 350V390.28Z" fill="url(#paint106_linear_2488_22375)"/>
<path d="M1390.37 351.72L1353.83 330.62V288.43L1390.37 267.33L1426.92 288.43V330.63L1390.37 351.72ZM1355.46 329.67L1390.37 349.83L1425.28 329.67V289.37L1390.37 269.22L1355.46 289.37V329.67Z" fill="url(#paint107_linear_2488_22375)"/>
<path d="M1354.18 329.44L1326.14 348.791L1327.07 350.141L1355.11 330.789L1354.18 329.44Z" fill="url(#paint108_linear_2488_22375)"/>
<path d="M1415.79 324.691L1391.74 339.054L1392.58 340.462L1416.63 326.099L1415.79 324.691Z" fill="url(#paint109_linear_2488_22375)"/>
<path d="M1315.54 386.59L1291.49 400.954L1292.34 402.362L1316.38 387.998L1315.54 386.59Z" fill="url(#paint110_linear_2488_22375)"/>
<path d="M1499.76 809.72L1463.22 788.62V746.42L1499.76 725.32L1536.31 746.42V788.62L1499.76 809.72ZM1464.86 787.72L1499.76 807.87L1534.67 787.72V747.37L1499.76 727.21L1464.86 747.37V787.72Z" fill="url(#paint111_linear_2488_22375)"/>
<path d="M1599.27 749.12L1562.72 728V685.8L1599.27 664.7L1635.83 685.8V728L1599.27 749.12ZM1564.36 727.12L1599.27 747.27L1634.18 727.12V686.77L1599.27 666.61L1564.36 686.77V727.12Z" fill="url(#paint112_linear_2488_22375)"/>
<path d="M1563.09 726.798L1535.05 746.149L1535.98 747.499L1564.02 728.148L1563.09 726.798Z" fill="url(#paint113_linear_2488_22375)"/>
<path d="M1623.69 725.172L1599.61 739.455L1600.44 740.865L1624.53 726.583L1623.69 725.172Z" fill="url(#paint114_linear_2488_22375)"/>
<path d="M1524.46 783.896L1500.42 798.271L1501.27 799.679L1525.3 785.303L1524.46 783.896Z" fill="url(#paint115_linear_2488_22375)"/>
<path d="M1585.24 145L1548.7 123.9V81.7001L1585.24 60.6001L1621.79 81.7001V123.9L1585.24 145ZM1550.33 123L1585.24 143.16L1620.15 123V82.6401L1585.24 62.4901L1550.33 82.6401V123Z" fill="url(#paint116_linear_2488_22375)"/>
<path d="M1648.52 62.1018L1620.48 81.4531L1621.41 82.8029L1649.45 63.4516L1648.52 62.1018Z" fill="url(#paint117_linear_2488_22375)"/>
<path d="M1609.94 119.277L1585.89 133.64L1586.73 135.048L1610.78 120.685L1609.94 119.277Z" fill="url(#paint118_linear_2488_22375)"/>
<path d="M1368.53 768.17L1332.31 747.25V705.42L1368.53 684.5L1404.76 705.42V747.25L1368.53 768.17ZM1333.94 746.31L1368.53 766.31L1403.12 746.31V706.37L1368.53 686.37L1333.94 706.37V746.31Z" fill="url(#paint119_linear_2488_22375)"/>
<path d="M1349.71 715.46V737.21L1368.53 748.08L1387.36 737.21V715.46L1368.53 704.59L1349.71 715.46Z" fill="url(#paint120_linear_2488_22375)"/>
<path d="M1343.69 272L1307.46 251.08V209.28L1343.69 188.36L1379.94 209.28V251.11L1343.69 272ZM1309.1 250.14L1343.69 270.14L1378.28 250.14V210.22L1343.69 190.22L1309.1 210.22V250.14Z" fill="url(#paint121_linear_2488_22375)"/>
<path d="M1324.87 219.32V241.06L1343.69 251.94L1362.52 241.06V219.32L1343.69 208.45L1324.87 219.32Z" fill="url(#paint122_linear_2488_22375)"/>
<path d="M1498.15 351.36L1461.92 330.44V288.61L1498.15 267.69L1534.37 288.61V330.44L1498.15 351.36ZM1463.56 329.5L1498.15 349.5L1532.75 329.5V289.55L1498.15 269.55L1463.56 289.55V329.5Z" fill="url(#paint123_linear_2488_22375)"/>
<path d="M1479.32 298.66V320.4L1498.15 331.27L1516.97 320.4V298.66L1498.15 287.79L1479.32 298.66Z" fill="url(#paint124_linear_2488_22375)"/>
<path d="M1448.06 717.75L1373.56 674.75V588.75L1373.97 588.52L1448.06 545.74L1522.56 588.74V674.74L1522.15 674.97L1448.06 717.75ZM1375.21 673.75L1448.06 715.82L1520.92 673.75V589.66L1448.06 547.59L1375.21 589.66V673.75Z" fill="url(#paint125_linear_2488_22375)"/>
<path d="M1490.23 157.48C1489.2 157.48 1488.19 157.174 1487.33 156.6C1486.47 156.027 1485.8 155.211 1485.41 154.258C1485.01 153.304 1484.91 152.254 1485.11 151.242C1485.31 150.229 1485.81 149.299 1486.54 148.569C1487.27 147.839 1488.2 147.342 1489.21 147.14C1490.22 146.939 1491.27 147.042 1492.23 147.437C1493.18 147.832 1494 148.502 1494.57 149.36C1495.14 150.218 1495.45 151.228 1495.45 152.26C1495.45 153.644 1494.9 154.972 1493.92 155.951C1492.94 156.93 1491.61 157.48 1490.23 157.48ZM1490.23 148.68C1489.52 148.68 1488.83 148.891 1488.23 149.286C1487.64 149.681 1487.18 150.242 1486.91 150.899C1486.64 151.555 1486.57 152.277 1486.71 152.974C1486.85 153.671 1487.19 154.31 1487.7 154.812C1488.2 155.314 1488.84 155.655 1489.54 155.792C1490.23 155.93 1490.96 155.857 1491.61 155.584C1492.27 155.311 1492.83 154.849 1493.22 154.257C1493.61 153.666 1493.82 152.97 1493.82 152.26C1493.82 151.789 1493.73 151.323 1493.55 150.888C1493.37 150.453 1493.1 150.058 1492.77 149.725C1492.43 149.392 1492.04 149.129 1491.6 148.95C1491.17 148.77 1490.7 148.679 1490.23 148.68Z" fill="url(#paint126_linear_2488_22375)"/>
<path d="M1274.07 163.06C1273.04 163.062 1272.03 162.758 1271.17 162.185C1270.31 161.613 1269.64 160.798 1269.24 159.845C1268.84 158.891 1268.74 157.841 1268.94 156.828C1269.14 155.815 1269.64 154.884 1270.37 154.153C1271.1 153.422 1272.03 152.923 1273.04 152.721C1274.05 152.519 1275.1 152.622 1276.06 153.017C1277.01 153.411 1277.83 154.08 1278.4 154.939C1278.97 155.798 1279.28 156.807 1279.28 157.84C1279.28 159.223 1278.73 160.549 1277.75 161.528C1276.78 162.506 1275.45 163.057 1274.07 163.06V163.06ZM1274.07 154.26C1273.36 154.258 1272.66 154.467 1272.07 154.861C1271.48 155.255 1271.02 155.815 1270.75 156.472C1270.47 157.128 1270.4 157.851 1270.54 158.548C1270.68 159.245 1271.02 159.886 1271.52 160.389C1272.02 160.891 1272.67 161.233 1273.36 161.372C1274.06 161.51 1274.78 161.438 1275.44 161.165C1276.1 160.892 1276.66 160.43 1277.05 159.838C1277.44 159.246 1277.65 158.551 1277.65 157.84C1277.65 156.891 1277.27 155.98 1276.6 155.309C1275.93 154.637 1275.02 154.26 1274.07 154.26V154.26Z" fill="url(#paint127_linear_2488_22375)"/>
<path d="M1419.06 42.3101C1418.03 42.3101 1417.02 42.004 1416.16 41.4304C1415.3 40.8568 1414.63 40.0416 1414.24 39.0877C1413.84 38.1339 1413.74 37.0843 1413.94 36.0717C1414.14 35.0592 1414.64 34.1291 1415.37 33.399C1416.1 32.669 1417.03 32.1718 1418.04 31.9704C1419.05 31.769 1420.1 31.8724 1421.06 32.2675C1422.01 32.6626 1422.83 33.3316 1423.4 34.19C1423.97 35.0485 1424.28 36.0577 1424.28 37.0901C1424.28 38.4737 1423.73 39.7999 1422.75 40.7783C1421.77 41.7567 1420.44 42.3075 1419.06 42.3101V42.3101ZM1419.06 33.5101C1418.35 33.5101 1417.66 33.7207 1417.07 34.1151C1416.48 34.5096 1416.02 35.0703 1415.74 35.7263C1415.47 36.3823 1415.4 37.1041 1415.54 37.8005C1415.68 38.4969 1416.02 39.1366 1416.52 39.6386C1417.02 40.1407 1417.66 40.4826 1418.36 40.6211C1419.06 40.7597 1419.78 40.6886 1420.43 40.4168C1421.09 40.1451 1421.65 39.685 1422.05 39.0946C1422.44 38.5042 1422.65 37.8102 1422.65 37.1001C1422.65 36.148 1422.27 35.2349 1421.6 34.5616C1420.93 33.8883 1420.01 33.5101 1419.06 33.5101Z" fill="url(#paint128_linear_2488_22375)"/>
<path d="M1419.37 49.3501H1417.73V69.9901H1419.37V49.3501Z" fill="url(#paint129_linear_2488_22375)"/>
<path d="M1418.55 153.45L1382 132.35V90.1498L1418.55 69.0498L1455.09 90.1498V132.35L1418.55 153.45ZM1383.64 131.45L1418.55 151.6L1453.46 131.45V91.0898L1418.55 70.9398L1383.64 91.0898V131.45Z" fill="url(#paint130_linear_2488_22375)"/>
<path d="M1346.92 153.45L1310.37 132.35V90.1498L1346.92 69.0498L1383.47 90.1498V132.35L1346.92 153.45ZM1312.01 131.45L1346.92 151.6L1381.83 131.45V91.0898L1346.92 70.9398L1312 91.0898L1312.01 131.45Z" fill="url(#paint131_linear_2488_22375)"/>
<path d="M1454.69 131.16L1453.84 132.564L1480.83 148.864L1481.68 147.461L1454.69 131.16Z" fill="url(#paint132_linear_2488_22375)"/>
<path d="M1309.79 130.004L1281.85 149.426L1282.78 150.764L1310.72 131.343L1309.79 130.004Z" fill="url(#paint133_linear_2488_22375)"/>
<path d="M1345.44 79.0781L1321.39 93.4414L1322.23 94.8494L1346.28 80.4861L1345.44 79.0781Z" fill="url(#paint134_linear_2488_22375)"/>
<path d="M1552.76 181.49C1551.73 181.49 1550.72 181.184 1549.86 180.61C1549 180.037 1548.33 179.221 1547.94 178.267C1547.54 177.314 1547.44 176.264 1547.64 175.251C1547.84 174.239 1548.34 173.309 1549.07 172.579C1549.8 171.849 1550.73 171.352 1551.74 171.15C1552.75 170.949 1553.8 171.052 1554.76 171.447C1555.71 171.842 1556.53 172.511 1557.1 173.37C1557.67 174.228 1557.98 175.237 1557.98 176.27C1557.98 177.654 1557.43 178.982 1556.45 179.961C1555.47 180.94 1554.14 181.49 1552.76 181.49ZM1552.76 172.69C1552.05 172.69 1551.36 172.9 1550.77 173.295C1550.18 173.689 1549.72 174.25 1549.44 174.906C1549.17 175.562 1549.1 176.284 1549.24 176.98C1549.38 177.677 1549.72 178.316 1550.22 178.818C1550.72 179.32 1551.36 179.662 1552.06 179.801C1552.76 179.939 1553.48 179.868 1554.13 179.597C1554.79 179.325 1555.35 178.865 1555.75 178.274C1556.14 177.684 1556.35 176.99 1556.35 176.28C1556.35 175.328 1555.97 174.415 1555.3 173.741C1554.63 173.068 1553.71 172.69 1552.76 172.69Z" fill="url(#paint135_linear_2488_22375)"/>
<path d="M1623.93 296.65C1622.9 296.65 1621.89 296.344 1621.03 295.771C1620.17 295.198 1619.5 294.383 1619.11 293.43C1618.71 292.477 1618.61 291.428 1618.81 290.415C1619.01 289.403 1619.51 288.473 1620.24 287.742C1620.96 287.012 1621.89 286.514 1622.91 286.311C1623.92 286.109 1624.97 286.211 1625.92 286.604C1626.87 286.998 1627.69 287.665 1628.27 288.523C1628.84 289.38 1629.15 290.388 1629.15 291.42C1629.15 292.107 1629.02 292.787 1628.76 293.422C1628.5 294.057 1628.11 294.634 1627.63 295.12C1627.14 295.607 1626.57 295.992 1625.93 296.254C1625.3 296.517 1624.62 296.651 1623.93 296.65ZM1623.93 287.85C1623.22 287.85 1622.53 288.061 1621.94 288.455C1621.35 288.849 1620.88 289.41 1620.61 290.066C1620.34 290.722 1620.27 291.444 1620.41 292.14C1620.55 292.837 1620.89 293.476 1621.39 293.978C1621.89 294.481 1622.53 294.822 1623.23 294.961C1623.93 295.1 1624.65 295.028 1625.3 294.757C1625.96 294.485 1626.52 294.025 1626.91 293.434C1627.31 292.844 1627.52 292.15 1627.52 291.44C1627.52 290.488 1627.14 289.575 1626.47 288.901C1625.8 288.228 1624.88 287.85 1623.93 287.85Z" fill="url(#paint136_linear_2488_22375)"/>
<path d="M1625.27 258.53H1623.63V279.17H1625.27V258.53Z" fill="url(#paint137_linear_2488_22375)"/>
<path d="M1624.45 259.48L1587.9 238.38V196.18L1624.45 175.08L1660.99 196.18V238.38L1624.45 259.48ZM1589.53 237.43L1624.44 257.59L1659.35 237.43V197.13L1624.44 177L1589.53 197.16V237.43Z" fill="url(#paint138_linear_2488_22375)"/>
<path d="M1564.86 177.482L1564.01 178.886L1591.13 195.283L1591.98 193.88L1564.86 177.482Z" fill="url(#paint139_linear_2488_22375)"/>
<path d="M1426.46 414.86C1425.43 414.86 1424.42 414.554 1423.56 413.98C1422.7 413.407 1422.03 412.591 1421.64 411.638C1421.24 410.684 1421.14 409.634 1421.34 408.622C1421.54 407.609 1422.04 406.679 1422.77 405.949C1423.5 405.219 1424.43 404.722 1425.44 404.52C1426.45 404.319 1427.5 404.422 1428.46 404.817C1429.41 405.212 1430.23 405.881 1430.8 406.74C1431.37 407.598 1431.68 408.608 1431.68 409.64C1431.68 411.023 1431.12 412.347 1430.15 413.325C1429.17 414.303 1427.84 414.855 1426.46 414.86V414.86ZM1426.46 406.06C1425.75 406.06 1425.06 406.27 1424.47 406.665C1423.88 407.059 1423.42 407.62 1423.14 408.276C1422.87 408.932 1422.8 409.654 1422.94 410.35C1423.08 411.047 1423.42 411.686 1423.92 412.188C1424.42 412.691 1425.06 413.032 1425.76 413.171C1426.46 413.309 1427.18 413.238 1427.83 412.967C1428.49 412.695 1429.05 412.235 1429.45 411.644C1429.84 411.054 1430.05 410.36 1430.05 409.65C1430.05 408.698 1429.67 407.785 1429 407.111C1428.33 406.438 1427.41 406.06 1426.46 406.06V406.06Z" fill="url(#paint140_linear_2488_22375)"/>
<path d="M1497.63 530C1496.6 530 1495.59 529.694 1494.73 529.12C1493.87 528.547 1493.2 527.731 1492.81 526.778C1492.41 525.824 1492.31 524.774 1492.51 523.762C1492.71 522.749 1493.21 521.819 1493.94 521.089C1494.67 520.359 1495.6 519.862 1496.61 519.66C1497.62 519.459 1498.67 519.562 1499.63 519.957C1500.58 520.353 1501.4 521.022 1501.97 521.88C1502.54 522.738 1502.85 523.748 1502.85 524.78C1502.85 526.165 1502.3 527.492 1501.32 528.471C1500.34 529.45 1499.01 530 1497.63 530ZM1497.63 521.2C1496.92 521.2 1496.23 521.411 1495.64 521.805C1495.05 522.2 1494.59 522.76 1494.31 523.416C1494.04 524.072 1493.97 524.794 1494.11 525.49C1494.25 526.187 1494.59 526.827 1495.09 527.329C1495.59 527.831 1496.23 528.173 1496.93 528.311C1497.63 528.45 1498.35 528.379 1499 528.107C1499.66 527.835 1500.22 527.375 1500.62 526.785C1501.01 526.194 1501.22 525.5 1501.22 524.79C1501.22 524.318 1501.13 523.851 1500.95 523.415C1500.77 522.979 1500.51 522.582 1500.17 522.249C1499.84 521.915 1499.44 521.651 1499.01 521.471C1498.57 521.291 1498.1 521.199 1497.63 521.2V521.2Z" fill="url(#paint141_linear_2488_22375)"/>
<path d="M1498.97 491.9H1497.33V512.54H1498.97V491.9Z" fill="url(#paint142_linear_2488_22375)"/>
<path d="M1498.15 492.85L1461.6 471.75V429.55L1498.15 408.45L1534.69 429.55V471.75L1498.15 492.85ZM1463.24 470.8L1498.15 491L1533.05 470.84V430.5L1498.15 410.34L1463.24 430.5V470.8Z" fill="url(#paint143_linear_2488_22375)"/>
<path d="M1569.79 492.85L1533.25 471.75V429.55L1569.79 408.45L1606.34 429.55V471.75L1569.79 492.85ZM1534.88 470.8L1569.79 491L1604.7 470.84V430.5L1569.79 410.34L1534.88 430.5V470.8Z" fill="url(#paint144_linear_2488_22375)"/>
<path d="M1435.84 412.988L1435 414.392L1461.98 430.692L1462.83 429.288L1435.84 412.988Z" fill="url(#paint145_linear_2488_22375)"/>
<path d="M1633.09 409.933L1605.05 429.284L1605.98 430.634L1634.02 411.283L1633.09 409.933Z" fill="url(#paint146_linear_2488_22375)"/>
<path d="M1595.95 473.66L1571.86 487.945L1572.69 489.355L1596.78 475.07L1595.95 473.66Z" fill="url(#paint147_linear_2488_22375)"/>
<path d="M1066.8 624.42C1065.77 624.422 1064.76 624.118 1063.9 623.546C1063.04 622.975 1062.37 622.162 1061.97 621.209C1061.58 620.257 1061.47 619.208 1061.67 618.195C1061.87 617.182 1062.36 616.251 1063.09 615.52C1063.82 614.788 1064.74 614.288 1065.76 614.083C1066.77 613.879 1067.82 613.979 1068.77 614.371C1069.73 614.762 1070.54 615.428 1071.12 616.284C1071.7 617.14 1072.01 618.148 1072.01 619.18C1072.01 620.565 1071.47 621.895 1070.49 622.878C1069.51 623.86 1068.19 624.415 1066.8 624.42ZM1066.8 615.62C1066.09 615.62 1065.4 615.831 1064.81 616.225C1064.22 616.619 1063.76 617.18 1063.48 617.836C1063.21 618.492 1063.14 619.214 1063.28 619.91C1063.42 620.607 1063.76 621.246 1064.26 621.749C1064.76 622.251 1065.4 622.592 1066.1 622.731C1066.8 622.87 1067.52 622.798 1068.17 622.527C1068.83 622.255 1069.39 621.795 1069.79 621.204C1070.18 620.614 1070.39 619.92 1070.39 619.21C1070.39 618.738 1070.3 618.271 1070.12 617.835C1069.94 617.398 1069.68 617.002 1069.34 616.669C1069.01 616.335 1068.61 616.07 1068.18 615.891C1067.74 615.711 1067.27 615.619 1066.8 615.62Z" fill="url(#paint148_linear_2488_22375)"/>
<path d="M1138 739.58C1136.97 739.58 1135.96 739.274 1135.1 738.7C1134.24 738.127 1133.57 737.312 1133.18 736.358C1132.78 735.404 1132.68 734.354 1132.88 733.342C1133.08 732.329 1133.58 731.399 1134.31 730.669C1135.04 729.939 1135.97 729.442 1136.98 729.24C1137.99 729.039 1139.04 729.142 1140 729.537C1140.95 729.933 1141.77 730.602 1142.34 731.46C1142.91 732.318 1143.22 733.328 1143.22 734.36C1143.22 735.745 1142.67 737.072 1141.69 738.051C1140.71 739.03 1139.38 739.58 1138 739.58ZM1138 730.78C1137.29 730.78 1136.6 730.991 1136.01 731.385C1135.42 731.78 1134.96 732.34 1134.68 732.996C1134.41 733.652 1134.34 734.374 1134.48 735.071C1134.62 735.767 1134.96 736.407 1135.46 736.909C1135.96 737.411 1136.6 737.753 1137.3 737.891C1138 738.03 1138.72 737.959 1139.37 737.687C1140.03 737.415 1140.59 736.955 1140.99 736.365C1141.38 735.774 1141.59 735.08 1141.59 734.37C1141.59 733.899 1141.5 733.432 1141.32 732.996C1141.14 732.561 1140.87 732.165 1140.54 731.832C1140.21 731.498 1139.81 731.234 1139.37 731.053C1138.94 730.873 1138.47 730.78 1138 730.78V730.78Z" fill="url(#paint149_linear_2488_22375)"/>
<path d="M1139.31 701.46H1137.67V722.1H1139.31V701.46Z" fill="url(#paint150_linear_2488_22375)"/>
<path d="M1138.49 702.4L1101.94 681.3V639.11L1138.49 618.01L1175.03 639.11V681.31L1138.49 702.4ZM1103.59 680.4L1138.5 700.56L1173.41 680.4V640.05L1138.5 619.9L1103.59 640.05V680.4Z" fill="url(#paint151_linear_2488_22375)"/>
<path d="M1210.13 702.4L1173.58 681.3V639.11L1210.13 618.01L1246.68 639.11V681.31L1210.13 702.4ZM1175.22 680.4L1210.13 700.56L1245 680.36V640.05L1210.09 619.9L1175.18 640.05L1175.22 680.4Z" fill="url(#paint152_linear_2488_22375)"/>
<path d="M1309.64 641.8L1273.09 620.71V578.51L1309.64 557.41L1346.18 578.51V620.71L1309.64 641.8ZM1274.73 619.8L1309.64 639.95L1344.55 619.8V579.45L1309.64 559.3L1274.73 579.45V619.8Z" fill="url(#paint153_linear_2488_22375)"/>
<path d="M1082.18 619.737L1081.33 621.147L1108.45 637.543L1109.3 636.133L1082.18 619.737Z" fill="url(#paint154_linear_2488_22375)"/>
<path d="M1273.47 619.497L1245.42 638.854L1246.35 640.203L1274.4 620.846L1273.47 619.497Z" fill="url(#paint155_linear_2488_22375)"/>
<path d="M1335.02 614.753L1310.99 629.133L1311.83 630.541L1335.87 616.161L1335.02 614.753Z" fill="url(#paint156_linear_2488_22375)"/>
<path d="M1233.36 678.584L1209.28 692.866L1210.12 694.277L1234.2 679.994L1233.36 678.584Z" fill="url(#paint157_linear_2488_22375)"/>
</g>
<defs>
<linearGradient id="paint0_linear_2488_22375" x1="1123.13" y1="-151.01" x2="-75.88" y2="616.55" gradientUnits="userSpaceOnUse">
<stop stopColor="#2B006A"/>
<stop offset="1" stopColor="#434EFF"/>
</linearGradient>
<linearGradient id="paint1_linear_2488_22375" x1="88119.5" y1="85044.7" x2="-6380.21" y2="32649.3" gradientUnits="userSpaceOnUse">
<stop stopColor="#2B006A"/>
<stop offset="1" stopColor="#434EFF"/>
</linearGradient>
<linearGradient id="paint2_linear_2488_22375" x1="41172.2" y1="-990.38" x2="40834.3" y2="3308.83" gradientUnits="userSpaceOnUse">
<stop stopColor="#2B006A"/>
<stop offset="1" stopColor="#434EFF"/>
</linearGradient>
<linearGradient id="paint3_linear_2488_22375" x1="34427.8" y1="-1085.77" x2="34035.2" y2="3207.51" gradientUnits="userSpaceOnUse">
<stop stopColor="#2B006A"/>
<stop offset="1" stopColor="#434EFF"/>
</linearGradient>
<linearGradient id="paint4_linear_2488_22375" x1="34299.2" y1="-1259.47" x2="33920" y2="3035.61" gradientUnits="userSpaceOnUse">
<stop stopColor="#2B006A"/>
<stop offset="1" stopColor="#434EFF"/>
</linearGradient>
<linearGradient id="paint5_linear_2488_22375" x1="100727" y1="63111.2" x2="6222.28" y2="10719.2" gradientUnits="userSpaceOnUse">
<stop stopColor="#2B006A"/>
<stop offset="1" stopColor="#434EFF"/>
</linearGradient>
<linearGradient id="paint6_linear_2488_22375" x1="100929" y1="62851" x2="6434.77" y2="10453.2" gradientUnits="userSpaceOnUse">
<stop stopColor="#2B006A"/>
<stop offset="1" stopColor="#434EFF"/>
</linearGradient>
<linearGradient id="paint7_linear_2488_22375" x1="47384.9" y1="-608.853" x2="47047" y2="3690.3" gradientUnits="userSpaceOnUse">
<stop stopColor="#2B006A"/>
<stop offset="1" stopColor="#434EFF"/>
</linearGradient>
<linearGradient id="paint8_linear_2488_22375" x1="39626.7" y1="-850.505" x2="39247.5" y2="3444.63" gradientUnits="userSpaceOnUse">
<stop stopColor="#2B006A"/>
<stop offset="1" stopColor="#434EFF"/>
</linearGradient>
<linearGradient id="paint9_linear_2488_22375" x1="39377.3" y1="-792.948" x2="38984.5" y2="3500.9" gradientUnits="userSpaceOnUse">
<stop stopColor="#2B006A"/>
<stop offset="1" stopColor="#434EFF"/>
</linearGradient>
<linearGradient id="paint10_linear_2488_22375" x1="100891" y1="63157.7" x2="6393.69" y2="10730.6" gradientUnits="userSpaceOnUse">
<stop stopColor="#2B006A"/>
<stop offset="1" stopColor="#434EFF"/>
</linearGradient>
<linearGradient id="paint11_linear_2488_22375" x1="101038" y1="62934.6" x2="6552.42" y2="10561.3" gradientUnits="userSpaceOnUse">
<stop stopColor="#2B006A"/>
<stop offset="1" stopColor="#434EFF"/>
</linearGradient>
<linearGradient id="paint12_linear_2488_22375" x1="47598.1" y1="-428.798" x2="47260.2" y2="3870.36" gradientUnits="userSpaceOnUse">
<stop stopColor="#2B006A"/>
<stop offset="1" stopColor="#434EFF"/>
</linearGradient>
<linearGradient id="paint13_linear_2488_22375" x1="39853.2" y1="-671.969" x2="39474" y2="3623.14" gradientUnits="userSpaceOnUse">
<stop stopColor="#2B006A"/>
<stop offset="1" stopColor="#434EFF"/>
</linearGradient>
<linearGradient id="paint14_linear_2488_22375" x1="39724.1" y1="-736.245" x2="39344.9" y2="3558.89" gradientUnits="userSpaceOnUse">
<stop stopColor="#2B006A"/>
<stop offset="1" stopColor="#434EFF"/>
</linearGradient>
<linearGradient id="paint15_linear_2488_22375" x1="87042.5" y1="86450.7" x2="-7448.59" y2="34081.4" gradientUnits="userSpaceOnUse">
<stop stopColor="#2B006A"/>
<stop offset="1" stopColor="#434EFF"/>
</linearGradient>
<linearGradient id="paint16_linear_2488_22375" x1="87268.9" y1="86185" x2="-7225.51" y2="33786.4" gradientUnits="userSpaceOnUse">
<stop stopColor="#2B006A"/>
<stop offset="1" stopColor="#434EFF"/>
</linearGradient>
<linearGradient id="paint17_linear_2488_22375" x1="40608.6" y1="-1196.3" x2="40270.7" y2="3102.91" gradientUnits="userSpaceOnUse">
<stop stopColor="#2B006A"/>
<stop offset="1" stopColor="#434EFF"/>
</linearGradient>
<linearGradient id="paint18_linear_2488_22375" x1="33907.4" y1="-1398.09" x2="33528.2" y2="2897.05" gradientUnits="userSpaceOnUse">
<stop stopColor="#2B006A"/>
<stop offset="1" stopColor="#434EFF"/>
</linearGradient>
<linearGradient id="paint19_linear_2488_22375" x1="33778.1" y1="-1462.22" x2="33398.9" y2="2832.92" gradientUnits="userSpaceOnUse">
<stop stopColor="#2B006A"/>
<stop offset="1" stopColor="#434EFF"/>
</linearGradient>
<linearGradient id="paint20_linear_2488_22375" x1="105753" y1="53901.5" x2="11248" y2="1509.51" gradientUnits="userSpaceOnUse">
<stop stopColor="#2B006A"/>
<stop offset="1" stopColor="#434EFF"/>
</linearGradient>
<linearGradient id="paint21_linear_2488_22375" x1="105956" y1="53667.8" x2="11440.1" y2="1282.3" gradientUnits="userSpaceOnUse">
<stop stopColor="#2B006A"/>
<stop offset="1" stopColor="#434EFF"/>
</linearGradient>
<linearGradient id="paint22_linear_2488_22375" x1="49586.3" y1="-742.137" x2="49248.5" y2="3556.95" gradientUnits="userSpaceOnUse">
<stop stopColor="#2B006A"/>
<stop offset="1" stopColor="#434EFF"/>
</linearGradient>
<linearGradient id="paint23_linear_2488_22375" x1="41278" y1="-868.718" x2="40885.2" y2="3425.23" gradientUnits="userSpaceOnUse">
<stop stopColor="#2B006A"/>
<stop offset="1" stopColor="#434EFF"/>
</linearGradient>
<linearGradient id="paint24_linear_2488_22375" x1="41263.6" y1="-1082.36" x2="40886.7" y2="3213" gradientUnits="userSpaceOnUse">
<stop stopColor="#2B006A"/>
<stop offset="1" stopColor="#434EFF"/>
</linearGradient>
<linearGradient id="paint25_linear_2488_22375" x1="85616.5" y1="89755.9" x2="-8902.17" y2="37341.9" gradientUnits="userSpaceOnUse">
<stop stopColor="#2B006A"/>
<stop offset="1" stopColor="#434EFF"/>
</linearGradient>
<linearGradient id="paint26_linear_2488_22375" x1="85795.7" y1="89509.6" x2="-8709.19" y2="37117.6" gradientUnits="userSpaceOnUse">
<stop stopColor="#2B006A"/>
<stop offset="1" stopColor="#434EFF"/>
</linearGradient>
<linearGradient id="paint27_linear_2488_22375" x1="40246.9" y1="-818.051" x2="39909" y2="3481.13" gradientUnits="userSpaceOnUse">
<stop stopColor="#2B006A"/>
<stop offset="1" stopColor="#434EFF"/>
</linearGradient>
<linearGradient id="paint28_linear_2488_22375" x1="33720.3" y1="-1017.4" x2="33341.1" y2="3277.72" gradientUnits="userSpaceOnUse">
<stop stopColor="#2B006A"/>
<stop offset="1" stopColor="#434EFF"/>
</linearGradient>
<linearGradient id="paint29_linear_2488_22375" x1="33591" y1="-1081.47" x2="33211.9" y2="3213.65" gradientUnits="userSpaceOnUse">
<stop stopColor="#2B006A"/>
<stop offset="1" stopColor="#434EFF"/>
</linearGradient>
<linearGradient id="paint30_linear_2488_22375" x1="-472964" y1="-7193.12" x2="-378465" y2="-59588.4" gradientUnits="userSpaceOnUse">
<stop stopColor="#2B006A"/>
<stop offset="1" stopColor="#434EFF"/>
</linearGradient>
<linearGradient id="paint31_linear_2488_22375" x1="-473033" y1="-7318.16" x2="-378527" y2="-59724.4" gradientUnits="userSpaceOnUse">
<stop stopColor="#2B006A"/>
<stop offset="1" stopColor="#434EFF"/>
</linearGradient>
<linearGradient id="paint32_linear_2488_22375" x1="-216933" y1="-328.294" x2="-216595" y2="-4627.48" gradientUnits="userSpaceOnUse">
<stop stopColor="#2B006A"/>
<stop offset="1" stopColor="#434EFF"/>
</linearGradient>
<linearGradient id="paint33_linear_2488_22375" x1="-177860" y1="983.37" x2="-177481" y2="-3311.74" gradientUnits="userSpaceOnUse">
<stop stopColor="#2B006A"/>
<stop offset="1" stopColor="#434EFF"/>
</linearGradient>
<linearGradient id="paint34_linear_2488_22375" x1="-177995" y1="369.86" x2="-177603" y2="-3924.07" gradientUnits="userSpaceOnUse">
<stop stopColor="#2B006A"/>
<stop offset="1" stopColor="#434EFF"/>
</linearGradient>
<linearGradient id="paint35_linear_2488_22375" x1="110464" y1="43833.4" x2="16792" y2="-8103.49" gradientUnits="userSpaceOnUse">
<stop stopColor="#2B006A"/>
<stop offset="1" stopColor="#434EFF"/>
</linearGradient>
<linearGradient id="paint36_linear_2488_22375" x1="57819.3" y1="23128.8" x2="9130.28" y2="-3854.66" gradientUnits="userSpaceOnUse">
<stop stopColor="#2B006A"/>
<stop offset="1" stopColor="#434EFF"/>
</linearGradient>
<linearGradient id="paint37_linear_2488_22375" x1="100651" y1="60831.5" x2="6934.25" y2="8846.42" gradientUnits="userSpaceOnUse">
<stop stopColor="#2B006A"/>
<stop offset="1" stopColor="#434EFF"/>
</linearGradient>
<linearGradient id="paint38_linear_2488_22375" x1="52455.2" y1="31967.8" x2="3766.21" y2="4984.35" gradientUnits="userSpaceOnUse">
<stop stopColor="#2B006A"/>
<stop offset="1" stopColor="#434EFF"/>
</linearGradient>
<linearGradient id="paint39_linear_2488_22375" x1="83746.5" y1="90691" x2="-9940.41" y2="38717.9" gradientUnits="userSpaceOnUse">
<stop stopColor="#2B006A"/>
<stop offset="1" stopColor="#434EFF"/>
</linearGradient>
<linearGradient id="paint40_linear_2488_22375" x1="43676.3" y1="47266.8" x2="-5012.21" y2="20283.7" gradientUnits="userSpaceOnUse">
<stop stopColor="#2B006A"/>
<stop offset="1" stopColor="#434EFF"/>
</linearGradient>
<linearGradient id="paint41_linear_2488_22375" x1="89729.1" y1="80226.9" x2="-3953.08" y2="28296.6" gradientUnits="userSpaceOnUse">
<stop stopColor="#2B006A"/>
<stop offset="1" stopColor="#434EFF"/>
</linearGradient>
<linearGradient id="paint42_linear_2488_22375" x1="46877.4" y1="41839.4" x2="-1805.94" y2="14852.7" gradientUnits="userSpaceOnUse">
<stop stopColor="#2B006A"/>
<stop offset="1" stopColor="#434EFF"/>
</linearGradient>
<linearGradient id="paint43_linear_2488_22375" x1="203568" y1="129531" x2="10936.4" y2="22710.2" gradientUnits="userSpaceOnUse">
<stop stopColor="#2B006A"/>
<stop offset="1" stopColor="#434EFF"/>
</linearGradient>
<linearGradient id="paint44_linear_2488_22375" x1="78737.3" y1="99279.8" x2="-14951.8" y2="47338.5" gradientUnits="userSpaceOnUse">
<stop stopColor="#2B006A"/>
<stop offset="1" stopColor="#434EFF"/>
</linearGradient>
<linearGradient id="paint45_linear_2488_22375" x1="48840.8" y1="61281.3" x2="2123.76" y2="35374.4" gradientUnits="userSpaceOnUse">
<stop stopColor="#2B006A"/>
<stop offset="1" stopColor="#434EFF"/>
</linearGradient>
<linearGradient id="paint46_linear_2488_22375" x1="47508" y1="63691.4" x2="789.243" y2="37793.1" gradientUnits="userSpaceOnUse">
<stop stopColor="#2B006A"/>
<stop offset="1" stopColor="#434EFF"/>
</linearGradient>
<linearGradient id="paint47_linear_2488_22375" x1="51913.9" y1="55862.9" x2="5199.58" y2="29961.4" gradientUnits="userSpaceOnUse">
<stop stopColor="#2B006A"/>
<stop offset="1" stopColor="#434EFF"/>
</linearGradient>
<linearGradient id="paint48_linear_2488_22375" x1="107024" y1="50724.4" x2="13312.7" y2="-1218.11" gradientUnits="userSpaceOnUse">
<stop stopColor="#2B006A"/>
<stop offset="1" stopColor="#434EFF"/>
</linearGradient>
<linearGradient id="paint49_linear_2488_22375" x1="59023.8" y1="27961.8" x2="7759.46" y2="-461.776" gradientUnits="userSpaceOnUse">
<stop stopColor="#2B006A"/>
<stop offset="1" stopColor="#434EFF"/>
</linearGradient>
<linearGradient id="paint50_linear_2488_22375" x1="16617.5" y1="6169.59" x2="4099.77" y2="-1843.98" gradientUnits="userSpaceOnUse">
<stop stopColor="#2B006A"/>
<stop offset="1" stopColor="#434EFF"/>
</linearGradient>
<linearGradient id="paint51_linear_2488_22375" x1="15771.6" y1="7158.52" x2="3253.99" y2="-854.769" gradientUnits="userSpaceOnUse">
<stop stopColor="#2B006A"/>
<stop offset="1" stopColor="#434EFF"/>
</linearGradient>
<linearGradient id="paint52_linear_2488_22375" x1="15784.3" y1="7244.59" x2="3266.63" y2="-768.819" gradientUnits="userSpaceOnUse">
<stop stopColor="#2B006A"/>
<stop offset="1" stopColor="#434EFF"/>
</linearGradient>
<linearGradient id="paint53_linear_2488_22375" x1="3195.18" y1="13480.5" x2="430.082" y2="13339.9" gradientUnits="userSpaceOnUse">
<stop stopColor="#2B006A"/>
<stop offset="1" stopColor="#434EFF"/>
</linearGradient>
<linearGradient id="paint54_linear_2488_22375" x1="108019" y1="50326.3" x2="13482.9" y2="-2092.03" gradientUnits="userSpaceOnUse">
<stop stopColor="#2B006A"/>
<stop offset="1" stopColor="#434EFF"/>
</linearGradient>
<linearGradient id="paint55_linear_2488_22375" x1="106381" y1="53072.5" x2="11865.4" y2="687.02" gradientUnits="userSpaceOnUse">
<stop stopColor="#2B006A"/>
<stop offset="1" stopColor="#434EFF"/>
</linearGradient>
<linearGradient id="paint56_linear_2488_22375" x1="3335.52" y1="-17104.1" x2="552.59" y2="-17010" gradientUnits="userSpaceOnUse">
<stop stopColor="#2B006A"/>
<stop offset="1" stopColor="#434EFF"/>
</linearGradient>
<linearGradient id="paint57_linear_2488_22375" x1="49858.7" y1="-650.122" x2="49520.9" y2="3648.99" gradientUnits="userSpaceOnUse">
<stop stopColor="#2B006A"/>
<stop offset="1" stopColor="#434EFF"/>
</linearGradient>
<linearGradient id="paint58_linear_2488_22375" x1="40794" y1="-931.303" x2="40414.9" y2="3363.89" gradientUnits="userSpaceOnUse">
<stop stopColor="#2B006A"/>
<stop offset="1" stopColor="#434EFF"/>
</linearGradient>
<linearGradient id="paint59_linear_2488_22375" x1="12594.4" y1="11326.2" x2="76.6392" y2="3312.73" gradientUnits="userSpaceOnUse">
<stop stopColor="#2B006A"/>
<stop offset="1" stopColor="#434EFF"/>
</linearGradient>
<linearGradient id="paint60_linear_2488_22375" x1="11748.6" y1="12315.2" x2="-769.084" y2="4301.8" gradientUnits="userSpaceOnUse">
<stop stopColor="#2B006A"/>
<stop offset="1" stopColor="#434EFF"/>
</linearGradient>
<linearGradient id="paint61_linear_2488_22375" x1="11761.2" y1="12401.3" x2="-756.48" y2="4387.79" gradientUnits="userSpaceOnUse">
<stop stopColor="#2B006A"/>
<stop offset="1" stopColor="#434EFF"/>
</linearGradient>
<linearGradient id="paint62_linear_2488_22375" x1="2232.16" y1="24177.9" x2="-532.899" y2="24037.3" gradientUnits="userSpaceOnUse">
<stop stopColor="#2B006A"/>
<stop offset="1" stopColor="#434EFF"/>
</linearGradient>
<linearGradient id="paint63_linear_2488_22375" x1="82166" y1="95646.1" x2="-12339.7" y2="43254.1" gradientUnits="userSpaceOnUse">
<stop stopColor="#2B006A"/>
<stop offset="1" stopColor="#434EFF"/>
</linearGradient>
<linearGradient id="paint64_linear_2488_22375" x1="80582.9" y1="98391.7" x2="-13928.9" y2="45988.7" gradientUnits="userSpaceOnUse">
<stop stopColor="#2B006A"/>
<stop offset="1" stopColor="#434EFF"/>
</linearGradient>
<linearGradient id="paint65_linear_2488_22375" x1="2359.28" y1="-33799.9" x2="-423.664" y2="-33705.8" gradientUnits="userSpaceOnUse">
<stop stopColor="#2B006A"/>
<stop offset="1" stopColor="#434EFF"/>
</linearGradient>
<linearGradient id="paint66_linear_2488_22375" x1="37655.6" y1="-1181.54" x2="37335.5" y2="3092.79" gradientUnits="userSpaceOnUse">
<stop stopColor="#2B006A"/>
<stop offset="1" stopColor="#434EFF"/>
</linearGradient>
<linearGradient id="paint67_linear_2488_22375" x1="30662.3" y1="-1275.77" x2="30283.1" y2="3019.39" gradientUnits="userSpaceOnUse">
<stop stopColor="#2B006A"/>
<stop offset="1" stopColor="#434EFF"/>
</linearGradient>
<linearGradient id="paint68_linear_2488_22375" x1="12960.4" y1="10875.9" x2="442.762" y2="2862.54" gradientUnits="userSpaceOnUse">
<stop stopColor="#2B006A"/>
<stop offset="1" stopColor="#434EFF"/>
</linearGradient>
<linearGradient id="paint69_linear_2488_22375" x1="13793.7" y1="9800.92" x2="1275.87" y2="1787.42" gradientUnits="userSpaceOnUse">
<stop stopColor="#2B006A"/>
<stop offset="1" stopColor="#434EFF"/>
</linearGradient>
<linearGradient id="paint70_linear_2488_22375" x1="2692.02" y1="19394.9" x2="-73.0833" y2="19254.3" gradientUnits="userSpaceOnUse">
<stop stopColor="#2B006A"/>
<stop offset="1" stopColor="#434EFF"/>
</linearGradient>
<linearGradient id="paint71_linear_2488_22375" x1="90264.8" y1="81514.7" x2="-4240.25" y2="29122" gradientUnits="userSpaceOnUse">
<stop stopColor="#2B006A"/>
<stop offset="1" stopColor="#434EFF"/>
</linearGradient>
<linearGradient id="paint72_linear_2488_22375" x1="91859" y1="78768.4" x2="-2645.97" y2="26376.3" gradientUnits="userSpaceOnUse">
<stop stopColor="#2B006A"/>
<stop offset="1" stopColor="#434EFF"/>
</linearGradient>
<linearGradient id="paint73_linear_2488_22375" x1="92074.1" y1="78512.8" x2="-2433.19" y2="26106.5" gradientUnits="userSpaceOnUse">
<stop stopColor="#2B006A"/>
<stop offset="1" stopColor="#434EFF"/>
</linearGradient>
<linearGradient id="paint74_linear_2488_22375" x1="2577.01" y1="-31120.2" x2="-206.011" y2="-31028" gradientUnits="userSpaceOnUse">
<stop stopColor="#2B006A"/>
<stop offset="1" stopColor="#434EFF"/>
</linearGradient>
<linearGradient id="paint75_linear_2488_22375" x1="43222.4" y1="-706.852" x2="42884.5" y2="3592.33" gradientUnits="userSpaceOnUse">
<stop stopColor="#2B006A"/>
<stop offset="1" stopColor="#434EFF"/>
</linearGradient>
<linearGradient id="paint76_linear_2488_22375" x1="36189.6" y1="-923.859" x2="35810.4" y2="3371.28" gradientUnits="userSpaceOnUse">
<stop stopColor="#2B006A"/>
<stop offset="1" stopColor="#434EFF"/>
</linearGradient>
<linearGradient id="paint77_linear_2488_22375" x1="36060.2" y1="-988.128" x2="35681.1" y2="3306.99" gradientUnits="userSpaceOnUse">
<stop stopColor="#2B006A"/>
<stop offset="1" stopColor="#434EFF"/>
</linearGradient>
<linearGradient id="paint78_linear_2488_22375" x1="6464.79" y1="10238" x2="-6052.88" y2="2224.47" gradientUnits="userSpaceOnUse">
<stop stopColor="#2B006A"/>
<stop offset="1" stopColor="#434EFF"/>
</linearGradient>
<linearGradient id="paint79_linear_2488_22375" x1="1000.75" y1="20304.2" x2="-1764.33" y2="20163.6" gradientUnits="userSpaceOnUse">
<stop stopColor="#2B006A"/>
<stop offset="1" stopColor="#434EFF"/>
</linearGradient>
<linearGradient id="paint80_linear_2488_22375" x1="42795.5" y1="85375.3" x2="-51702.6" y2="32994.2" gradientUnits="userSpaceOnUse">
<stop stopColor="#2B006A"/>
<stop offset="1" stopColor="#434EFF"/>
</linearGradient>
<linearGradient id="paint81_linear_2488_22375" x1="44394.7" y1="82629.8" x2="-50110.2" y2="30237.7" gradientUnits="userSpaceOnUse">
<stop stopColor="#2B006A"/>
<stop offset="1" stopColor="#434EFF"/>
</linearGradient>
<linearGradient id="paint82_linear_2488_22375" x1="44603.3" y1="82373.8" x2="-49903.2" y2="29967.5" gradientUnits="userSpaceOnUse">
<stop stopColor="#2B006A"/>
<stop offset="1" stopColor="#434EFF"/>
</linearGradient>
<linearGradient id="paint83_linear_2488_22375" x1="20785.5" y1="-812.404" x2="20447.6" y2="3486.83" gradientUnits="userSpaceOnUse">
<stop stopColor="#2B006A"/>
<stop offset="1" stopColor="#434EFF"/>
</linearGradient>
<linearGradient id="paint84_linear_2488_22375" x1="17608.4" y1="-894.892" x2="17229.2" y2="3400.22" gradientUnits="userSpaceOnUse">
<stop stopColor="#2B006A"/>
<stop offset="1" stopColor="#434EFF"/>
</linearGradient>
<linearGradient id="paint85_linear_2488_22375" x1="17479.1" y1="-959.03" x2="17100" y2="3336.11" gradientUnits="userSpaceOnUse">
<stop stopColor="#2B006A"/>
<stop offset="1" stopColor="#434EFF"/>
</linearGradient>
<linearGradient id="paint86_linear_2488_22375" x1="13557.2" y1="9979.88" x2="1039.44" y2="1966.42" gradientUnits="userSpaceOnUse">
<stop stopColor="#2B006A"/>
<stop offset="1" stopColor="#434EFF"/>
</linearGradient>
<linearGradient id="paint87_linear_2488_22375" x1="14390.2" y1="8904.88" x2="1872.56" y2="891.33" gradientUnits="userSpaceOnUse">
<stop stopColor="#2B006A"/>
<stop offset="1" stopColor="#434EFF"/>
</linearGradient>
<linearGradient id="paint88_linear_2488_22375" x1="2679.23" y1="17395.4" x2="-85.7838" y2="17254.8" gradientUnits="userSpaceOnUse">
<stop stopColor="#2B006A"/>
<stop offset="1" stopColor="#434EFF"/>
</linearGradient>
<linearGradient id="paint89_linear_2488_22375" x1="95200.8" y1="72616.9" x2="695.853" y2="20224.8" gradientUnits="userSpaceOnUse">
<stop stopColor="#2B006A"/>
<stop offset="1" stopColor="#434EFF"/>
</linearGradient>
<linearGradient id="paint90_linear_2488_22375" x1="96794.1" y1="69871.3" x2="2289.21" y2="17479.3" gradientUnits="userSpaceOnUse">
<stop stopColor="#2B006A"/>
<stop offset="1" stopColor="#434EFF"/>
</linearGradient>
<linearGradient id="paint91_linear_2488_22375" x1="96957.2" y1="69633.3" x2="2467.53" y2="17277.4" gradientUnits="userSpaceOnUse">
<stop stopColor="#2B006A"/>
<stop offset="1" stopColor="#434EFF"/>
</linearGradient>
<linearGradient id="paint92_linear_2488_22375" x1="2545.17" y1="-28018.9" x2="-237.764" y2="-27924.8" gradientUnits="userSpaceOnUse">
<stop stopColor="#2B006A"/>
<stop offset="1" stopColor="#434EFF"/>
</linearGradient>
<linearGradient id="paint93_linear_2488_22375" x1="45453.1" y1="-754.949" x2="45115.2" y2="3544.28" gradientUnits="userSpaceOnUse">
<stop stopColor="#2B006A"/>
<stop offset="1" stopColor="#434EFF"/>
</linearGradient>
<linearGradient id="paint94_linear_2488_22375" x1="37890.9" y1="-867.87" x2="37498.1" y2="3426.05" gradientUnits="userSpaceOnUse">
<stop stopColor="#2B006A"/>
<stop offset="1" stopColor="#434EFF"/>
</linearGradient>
<linearGradient id="paint95_linear_2488_22375" x1="37871.8" y1="-929.252" x2="37479.1" y2="3364.02" gradientUnits="userSpaceOnUse">
<stop stopColor="#2B006A"/>
<stop offset="1" stopColor="#434EFF"/>
</linearGradient>
<linearGradient id="paint96_linear_2488_22375" x1="13099.4" y1="10342.6" x2="581.713" y2="2329.29" gradientUnits="userSpaceOnUse">
<stop stopColor="#2B006A"/>
<stop offset="1" stopColor="#434EFF"/>
</linearGradient>
<linearGradient id="paint97_linear_2488_22375" x1="13932.6" y1="9267.62" x2="1414.8" y2="1254.18" gradientUnits="userSpaceOnUse">
<stop stopColor="#2B006A"/>
<stop offset="1" stopColor="#434EFF"/>
</linearGradient>
<linearGradient id="paint98_linear_2488_22375" x1="2304.23" y1="17907.8" x2="-460.86" y2="17767.1" gradientUnits="userSpaceOnUse">
<stop stopColor="#2B006A"/>
<stop offset="1" stopColor="#434EFF"/>
</linearGradient>
<linearGradient id="paint99_linear_2488_22375" x1="94154.8" y1="74064.6" x2="-350.163" y2="21672.6" gradientUnits="userSpaceOnUse">
<stop stopColor="#2B006A"/>
<stop offset="1" stopColor="#434EFF"/>
</linearGradient>
<linearGradient id="paint100_linear_2488_22375" x1="95761.3" y1="71319.1" x2="1249.45" y2="18916.1" gradientUnits="userSpaceOnUse">
<stop stopColor="#2B006A"/>
<stop offset="1" stopColor="#434EFF"/>
</linearGradient>
<linearGradient id="paint101_linear_2488_22375" x1="95950.7" y1="71064.4" x2="1451.05" y2="18669.1" gradientUnits="userSpaceOnUse">
<stop stopColor="#2B006A"/>
<stop offset="1" stopColor="#434EFF"/>
</linearGradient>
<linearGradient id="paint102_linear_2488_22375" x1="2167.81" y1="-28693.3" x2="-615.113" y2="-28599.2" gradientUnits="userSpaceOnUse">
<stop stopColor="#2B006A"/>
<stop offset="1" stopColor="#434EFF"/>
</linearGradient>
<linearGradient id="paint103_linear_2488_22375" x1="44787.5" y1="-991.221" x2="44449.8" y2="3307.91" gradientUnits="userSpaceOnUse">
<stop stopColor="#2B006A"/>
<stop offset="1" stopColor="#434EFF"/>
</linearGradient>
<linearGradient id="paint104_linear_2488_22375" x1="37377.6" y1="-1243.88" x2="37001.5" y2="3051.42" gradientUnits="userSpaceOnUse">
<stop stopColor="#2B006A"/>
<stop offset="1" stopColor="#434EFF"/>
</linearGradient>
<linearGradient id="paint105_linear_2488_22375" x1="37169.1" y1="-1165.23" x2="36776.3" y2="3128.75" gradientUnits="userSpaceOnUse">
<stop stopColor="#2B006A"/>
<stop offset="1" stopColor="#434EFF"/>
</linearGradient>
<linearGradient id="paint106_linear_2488_22375" x1="160659" y1="85330.3" x2="66138.8" y2="32948.8" gradientUnits="userSpaceOnUse">
<stop stopColor="#2B006A"/>
<stop offset="1" stopColor="#434EFF"/>
</linearGradient>
<linearGradient id="paint107_linear_2488_22375" x1="160862" y1="85044.7" x2="66362.2" y2="32649.3" gradientUnits="userSpaceOnUse">
<stop stopColor="#2B006A"/>
<stop offset="1" stopColor="#434EFF"/>
</linearGradient>
<linearGradient id="paint108_linear_2488_22375" x1="75557.6" y1="-874.167" x2="75219.7" y2="3425.04" gradientUnits="userSpaceOnUse">
<stop stopColor="#2B006A"/>
<stop offset="1" stopColor="#434EFF"/>
</linearGradient>
<linearGradient id="paint109_linear_2488_22375" x1="62906.1" y1="-1285.34" x2="62526.9" y2="3009.79" gradientUnits="userSpaceOnUse">
<stop stopColor="#2B006A"/>
<stop offset="1" stopColor="#434EFF"/>
</linearGradient>
<linearGradient id="paint110_linear_2488_22375" x1="62776.8" y1="-1349.49" x2="62397.7" y2="2945.59" gradientUnits="userSpaceOnUse">
<stop stopColor="#2B006A"/>
<stop offset="1" stopColor="#434EFF"/>
</linearGradient>
<linearGradient id="paint111_linear_2488_22375" x1="178495" y1="53901.5" x2="83990.5" y2="1509.38" gradientUnits="userSpaceOnUse">
<stop stopColor="#2B006A"/>
<stop offset="1" stopColor="#434EFF"/>
</linearGradient>
<linearGradient id="paint112_linear_2488_22375" x1="178746" y1="53667.8" x2="84217.1" y2="1260.41" gradientUnits="userSpaceOnUse">
<stop stopColor="#2B006A"/>
<stop offset="1" stopColor="#434EFF"/>
</linearGradient>
<linearGradient id="paint113_linear_2488_22375" x1="83971.3" y1="-626.086" x2="83633.4" y2="3673" gradientUnits="userSpaceOnUse">
<stop stopColor="#2B006A"/>
<stop offset="1" stopColor="#434EFF"/>
</linearGradient>
<linearGradient id="paint114_linear_2488_22375" x1="69750.2" y1="-874.227" x2="69357.4" y2="3419.72" gradientUnits="userSpaceOnUse">
<stop stopColor="#2B006A"/>
<stop offset="1" stopColor="#434EFF"/>
</linearGradient>
<linearGradient id="paint115_linear_2488_22375" x1="69741.5" y1="-1187.16" x2="69364.6" y2="3108.19" gradientUnits="userSpaceOnUse">
<stop stopColor="#2B006A"/>
<stop offset="1" stopColor="#434EFF"/>
</linearGradient>
<linearGradient id="paint116_linear_2488_22375" x1="158336" y1="89755.9" x2="63830.7" y2="37363.7" gradientUnits="userSpaceOnUse">
<stop stopColor="#2B006A"/>
<stop offset="1" stopColor="#434EFF"/>
</linearGradient>
<linearGradient id="paint117_linear_2488_22375" x1="74632.2" y1="-701.559" x2="74294.3" y2="3597.62" gradientUnits="userSpaceOnUse">
<stop stopColor="#2B006A"/>
<stop offset="1" stopColor="#434EFF"/>
</linearGradient>
<linearGradient id="paint118_linear_2488_22375" x1="62069" y1="-1171.42" x2="61689.8" y2="3123.71" gradientUnits="userSpaceOnUse">
<stop stopColor="#2B006A"/>
<stop offset="1" stopColor="#434EFF"/>
</linearGradient>
<linearGradient id="paint119_linear_2488_22375" x1="172696" y1="60831.5" x2="79013.2" y2="8901.3" gradientUnits="userSpaceOnUse">
<stop stopColor="#2B006A"/>
<stop offset="1" stopColor="#434EFF"/>
</linearGradient>
<linearGradient id="paint120_linear_2488_22375" x1="90402.2" y1="31967.8" x2="41713.2" y2="4984.31" gradientUnits="userSpaceOnUse">
<stop stopColor="#2B006A"/>
<stop offset="1" stopColor="#434EFF"/>
</linearGradient>
<linearGradient id="paint121_linear_2488_22375" x1="155890" y1="90691" x2="62203" y2="38718" gradientUnits="userSpaceOnUse">
<stop stopColor="#2B006A"/>
<stop offset="1" stopColor="#434EFF"/>
</linearGradient>
<linearGradient id="paint122_linear_2488_22375" x1="81623.3" y1="47266.8" x2="32934.8" y2="20283.7" gradientUnits="userSpaceOnUse">
<stop stopColor="#2B006A"/>
<stop offset="1" stopColor="#434EFF"/>
</linearGradient>
<linearGradient id="paint123_linear_2488_22375" x1="161843" y1="80226.9" x2="68160.8" y2="28296.7" gradientUnits="userSpaceOnUse">
<stop stopColor="#2B006A"/>
<stop offset="1" stopColor="#434EFF"/>
</linearGradient>
<linearGradient id="paint124_linear_2488_22375" x1="84824.4" y1="41839.4" x2="36141.1" y2="14852.6" gradientUnits="userSpaceOnUse">
<stop stopColor="#2B006A"/>
<stop offset="1" stopColor="#434EFF"/>
</linearGradient>
<linearGradient id="paint125_linear_2488_22375" x1="350840" y1="129531" x2="158208" y2="22710.2" gradientUnits="userSpaceOnUse">
<stop stopColor="#2B006A"/>
<stop offset="1" stopColor="#434EFF"/>
</linearGradient>
<linearGradient id="paint126_linear_2488_22375" x1="23826.1" y1="11326.2" x2="11308.4" y2="3312.85" gradientUnits="userSpaceOnUse">
<stop stopColor="#2B006A"/>
<stop offset="1" stopColor="#434EFF"/>
</linearGradient>
<linearGradient id="paint127_linear_2488_22375" x1="22980.5" y1="12315.2" x2="10462.9" y2="4301.76" gradientUnits="userSpaceOnUse">
<stop stopColor="#2B006A"/>
<stop offset="1" stopColor="#434EFF"/>
</linearGradient>
<linearGradient id="paint128_linear_2488_22375" x1="22993.2" y1="12401.3" x2="10475.5" y2="4387.72" gradientUnits="userSpaceOnUse">
<stop stopColor="#2B006A"/>
<stop offset="1" stopColor="#434EFF"/>
</linearGradient>
<linearGradient id="paint129_linear_2488_22375" x1="4824.19" y1="24177.9" x2="2059.08" y2="24037.3" gradientUnits="userSpaceOnUse">
<stop stopColor="#2B006A"/>
<stop offset="1" stopColor="#434EFF"/>
</linearGradient>
<linearGradient id="paint130_linear_2488_22375" x1="154908" y1="95646.1" x2="60402.6" y2="43254.2" gradientUnits="userSpaceOnUse">
<stop stopColor="#2B006A"/>
<stop offset="1" stopColor="#434EFF"/>
</linearGradient>
<linearGradient id="paint131_linear_2488_22375" x1="153335" y1="98391.7" x2="58823.2" y2="45988.7" gradientUnits="userSpaceOnUse">
<stop stopColor="#2B006A"/>
<stop offset="1" stopColor="#434EFF"/>
</linearGradient>
<linearGradient id="paint132_linear_2488_22375" x1="4964.18" y1="-33801.2" x2="2181.24" y2="-33707.1" gradientUnits="userSpaceOnUse">
<stop stopColor="#2B006A"/>
<stop offset="1" stopColor="#434EFF"/>
</linearGradient>
<linearGradient id="paint133_linear_2488_22375" x1="72046.9" y1="-1173.71" x2="71726.8" y2="3100.59" gradientUnits="userSpaceOnUse">
<stop stopColor="#2B006A"/>
<stop offset="1" stopColor="#434EFF"/>
</linearGradient>
<linearGradient id="paint134_linear_2488_22375" x1="59140.1" y1="-1365.77" x2="58761" y2="2929.39" gradientUnits="userSpaceOnUse">
<stop stopColor="#2B006A"/>
<stop offset="1" stopColor="#434EFF"/>
</linearGradient>
<linearGradient id="paint135_linear_2488_22375" x1="24192.3" y1="10875.9" x2="11674.7" y2="2862.49" gradientUnits="userSpaceOnUse">
<stop stopColor="#2B006A"/>
<stop offset="1" stopColor="#434EFF"/>
</linearGradient>
<linearGradient id="paint136_linear_2488_22375" x1="25025.7" y1="9800.92" x2="12507.9" y2="1787.41" gradientUnits="userSpaceOnUse">
<stop stopColor="#2B006A"/>
<stop offset="1" stopColor="#434EFF"/>
</linearGradient>
<linearGradient id="paint137_linear_2488_22375" x1="5284.01" y1="19394.9" x2="2518.91" y2="19254.3" gradientUnits="userSpaceOnUse">
<stop stopColor="#2B006A"/>
<stop offset="1" stopColor="#434EFF"/>
</linearGradient>
<linearGradient id="paint138_linear_2488_22375" x1="163007" y1="81514.7" x2="68502" y2="29122" gradientUnits="userSpaceOnUse">
<stop stopColor="#2B006A"/>
<stop offset="1" stopColor="#434EFF"/>
</linearGradient>
<linearGradient id="paint139_linear_2488_22375" x1="5173.89" y1="-31136.1" x2="2390.88" y2="-31043.9" gradientUnits="userSpaceOnUse">
<stop stopColor="#2B006A"/>
<stop offset="1" stopColor="#434EFF"/>
</linearGradient>
<linearGradient id="paint140_linear_2488_22375" x1="24789.2" y1="9979.88" x2="12271.4" y2="1966.4" gradientUnits="userSpaceOnUse">
<stop stopColor="#2B006A"/>
<stop offset="1" stopColor="#434EFF"/>
</linearGradient>
<linearGradient id="paint141_linear_2488_22375" x1="25622.2" y1="8904.88" x2="13104.5" y2="891.347" gradientUnits="userSpaceOnUse">
<stop stopColor="#2B006A"/>
<stop offset="1" stopColor="#434EFF"/>
</linearGradient>
<linearGradient id="paint142_linear_2488_22375" x1="5271.3" y1="17395.4" x2="2506.19" y2="17254.8" gradientUnits="userSpaceOnUse">
<stop stopColor="#2B006A"/>
<stop offset="1" stopColor="#434EFF"/>
</linearGradient>
<linearGradient id="paint143_linear_2488_22375" x1="167943" y1="72616.9" x2="73438.1" y2="20224.9" gradientUnits="userSpaceOnUse">
<stop stopColor="#2B006A"/>
<stop offset="1" stopColor="#434EFF"/>
</linearGradient>
<linearGradient id="paint144_linear_2488_22375" x1="169536" y1="69871.3" x2="75031.5" y2="17479.3" gradientUnits="userSpaceOnUse">
<stop stopColor="#2B006A"/>
<stop offset="1" stopColor="#434EFF"/>
</linearGradient>
<linearGradient id="paint145_linear_2488_22375" x1="5150.08" y1="-28020.2" x2="2367.15" y2="-27926.1" gradientUnits="userSpaceOnUse">
<stop stopColor="#2B006A"/>
<stop offset="1" stopColor="#434EFF"/>
</linearGradient>
<linearGradient id="paint146_linear_2488_22375" x1="79838.5" y1="-638.305" x2="79500.5" y2="3660.92" gradientUnits="userSpaceOnUse">
<stop stopColor="#2B006A"/>
<stop offset="1" stopColor="#434EFF"/>
</linearGradient>
<linearGradient id="paint147_linear_2488_22375" x1="66347.4" y1="-929.836" x2="65954.8" y2="3363.44" gradientUnits="userSpaceOnUse">
<stop stopColor="#2B006A"/>
<stop offset="1" stopColor="#434EFF"/>
</linearGradient>
<linearGradient id="paint148_linear_2488_22375" x1="24331.2" y1="10342.6" x2="11813.5" y2="2329.32" gradientUnits="userSpaceOnUse">
<stop stopColor="#2B006A"/>
<stop offset="1" stopColor="#434EFF"/>
</linearGradient>
<linearGradient id="paint149_linear_2488_22375" x1="25164.5" y1="9267.62" x2="12646.8" y2="1254.19" gradientUnits="userSpaceOnUse">
<stop stopColor="#2B006A"/>
<stop offset="1" stopColor="#434EFF"/>
</linearGradient>
<linearGradient id="paint150_linear_2488_22375" x1="4896.24" y1="17907.8" x2="2131.13" y2="17767.1" gradientUnits="userSpaceOnUse">
<stop stopColor="#2B006A"/>
<stop offset="1" stopColor="#434EFF"/>
</linearGradient>
<linearGradient id="paint151_linear_2488_22375" x1="166897" y1="74055.9" x2="72397.6" y2="21660.5" gradientUnits="userSpaceOnUse">
<stop stopColor="#2B006A"/>
<stop offset="1" stopColor="#434EFF"/>
</linearGradient>
<linearGradient id="paint152_linear_2488_22375" x1="168514" y1="71310.7" x2="74007" y2="18904.3" gradientUnits="userSpaceOnUse">
<stop stopColor="#2B006A"/>
<stop offset="1" stopColor="#434EFF"/>
</linearGradient>
<linearGradient id="paint153_linear_2488_22375" x1="168693" y1="71064.4" x2="74193.5" y2="18669" gradientUnits="userSpaceOnUse">
<stop stopColor="#2B006A"/>
<stop offset="1" stopColor="#434EFF"/>
</linearGradient>
<linearGradient id="paint154_linear_2488_22375" x1="4812.33" y1="-28842" x2="2015.47" y2="-28748.9" gradientUnits="userSpaceOnUse">
<stop stopColor="#2B006A"/>
<stop offset="1" stopColor="#434EFF"/>
</linearGradient>
<linearGradient id="paint155_linear_2488_22375" x1="79182.3" y1="-875.136" x2="78844.5" y2="3423.99" gradientUnits="userSpaceOnUse">
<stop stopColor="#2B006A"/>
<stop offset="1" stopColor="#434EFF"/>
</linearGradient>
<linearGradient id="paint156_linear_2488_22375" x1="65855.3" y1="-1354.12" x2="65479.2" y2="2941.19" gradientUnits="userSpaceOnUse">
<stop stopColor="#2B006A"/>
<stop offset="1" stopColor="#434EFF"/>
</linearGradient>
<linearGradient id="paint157_linear_2488_22375" x1="65641.3" y1="-1170.75" x2="65248.5" y2="3123.2" gradientUnits="userSpaceOnUse">
<stop stopColor="#2B006A"/>
<stop offset="1" stopColor="#434EFF"/>
</linearGradient>
<clipPath id="clip0_2488_22375">
<rect width="2252.29" height="809.72" fill="white" transform="translate(-76)"/>
</clipPath>
</defs>
</svg>
