<svg width="32" height="32" viewBox="0 0 32 32" fill="none" xmlns="http://www.w3.org/2000/svg">
    <path d="M16 32c8.837 0 16-7.163 16-16S24.837 0 16 0 0 7.163 0 16s7.163 16 16 16z" fill="#fff"/>
    <path d="M15.97.1a14.42 14.42 0 0 0-3.557.42v19.667a.738.738 0 0 1-.212.507.712.712 0 0 1-.5.213h-1.424a.521.521 0 0 1-.377-.157.54.54 0 0 1-.157-.383V1.359A15.55 15.55 0 0 0 2.82 7.146 15.98 15.98 0 0 0 .2 15.869c.015 2.1.437 4.174 1.241 6.107a15.967 15.967 0 0 0 3.447 5.155 15.637 15.637 0 0 0 5.123 3.415A15.411 15.411 0 0 0 16.03 31.7a15.35 15.35 0 0 0 5.995-1.148 15.574 15.574 0 0 0 5.104-3.402 15.903 15.903 0 0 0 3.434-5.136 16.142 16.142 0 0 0 1.237-6.084c-.051-4.233-1.744-8.273-4.71-11.239A15.586 15.586 0 0 0 15.97.1zm-.296 22.365a.674.674 0 0 1-.194.466.65.65 0 0 1-.459.194h-1.424a.65.65 0 0 1-.459-.194.674.674 0 0 1-.194-.466V12.451a.674.674 0 0 1 .194-.465.65.65 0 0 1 .459-.194h1.424a.65.65 0 0 1 .459.194c.122.123.191.29.194.465v10.014zm3.2.96a.674.674 0 0 1-.193.465.65.65 0 0 1-.459.194h-1.424a.65.65 0 0 1-.458-.194.674.674 0 0 1-.194-.466V11.493a.674.674 0 0 1 .194-.466.65.65 0 0 1 .458-.194h1.424a.65.65 0 0 1 .46.194c.121.123.19.29.193.466v11.931zm3.202-1.797a.674.674 0 0 1-.194.466.65.65 0 0 1-.458.194h-1.42a.65.65 0 0 1-.46-.194.674.674 0 0 1-.193-.466v-8.217a.674.674 0 0 1 .194-.466.65.65 0 0 1 .458-.194h1.425a.65.65 0 0 1 .459.194c.122.123.191.29.193.466l-.004 8.217z" fill="url(#a)"/>
    <path d="M16 31.75c8.698 0 15.75-7.052 15.75-15.75S24.698.25 16 .25.25 7.302.25 16 7.302 31.75 16 31.75z" stroke="#fff" stroke-width=".5"/>
    <defs>
        <linearGradient id="a" x1="15.999" y1=".1" x2="15.999" y2="31.7" gradientUnits="userSpaceOnUse">
            <stop stop-color="#FF005C"/>
            <stop offset="1" stop-color="#C70048"/>
        </linearGradient>
    </defs>
</svg>
