<svg width="32" height="32" fill="none" xmlns="http://www.w3.org/2000/svg">
    <path d="M16 32c8.837 0 16-7.163 16-16S24.837 0 16 0 0 7.163 0 16s7.163 16 16 16z" fill="url(#a)"/>
    <path d="M16 31.75c8.698 0 15.75-7.052 15.75-15.75S24.698.25 16 .25.25 7.302.25 16 7.302 31.75 16 31.75z" stroke="#fff" stroke-width=".5"/>
    <path d="m24.51 9.415.11.668c.088.622.129 1.25.122 1.878 0 1.388-.168 2.77-.497 4.117a15.43 15.43 0 0 1-2.298 5.115 15.936 15.936 0 0 1-5.637 4.938l-.321.17-.319-.171a15.93 15.93 0 0 1-5.636-4.939 15.441 15.441 0 0 1-2.297-5.114 17.328 17.328 0 0 1-.497-4.117c-.007-.628.034-1.256.121-1.878l.11-.668a.42.42 0 1 0-.828-.14l-.11.668A13.416 13.416 0 0 0 6.4 11.96c0 1.455.176 2.905.523 4.318a16.281 16.281 0 0 0 2.421 5.391 16.783 16.783 0 0 0 5.928 5.204l.519.28a.42.42 0 0 0 .391 0l.517-.28a16.791 16.791 0 0 0 5.93-5.198 16.281 16.281 0 0 0 2.42-5.392c.348-1.413.523-2.862.523-4.318a13.26 13.26 0 0 0-.132-2.013l-.11-.668a.42.42 0 0 0-.83.14l.01-.009z" fill="#fff"/>
    <path d="m9.76 8.96 6.23-1.903 6.37 1.937a.42.42 0 1 0 .244-.8l-6.492-1.977a.42.42 0 0 0-.245 0l-6.35 1.939a.42.42 0 1 0 .242.803v.002z" fill="#fff"/>
    <path d="m6.685 9.538 8.932 17.431a.42.42 0 0 0 .743 0l5.45-10.187.009-.015 3.486-7.246a.418.418 0 0 0-.187-.577.419.419 0 0 0-.568.214l-3.485 7.237-5.067 9.476L7.431 9.156a.42.42 0 1 0-.746.382z" fill="#fff"/>
    <path d="M10.96 17.301h9.933a.419.419 0 1 0 0-.838H10.96a.419.419 0 1 0 0 .838z" fill="#fff"/>
    <defs>
        <linearGradient id="a" x1="16" y1="0" x2="16" y2="32" gradientUnits="userSpaceOnUse">
            <stop stop-color="#E0A84A"/>
            <stop offset="1" stop-color="#C58723"/>
        </linearGradient>
    </defs>
</svg>
