<svg width="14" height="14" viewBox="0 0 14 14" fill="none" xmlns="http://www.w3.org/2000/svg">
<path fill-rule="evenodd" clip-rule="evenodd" d="M7.30866 2.04885e-06C8.51507 -0.000916894 9.70137 0.307299 10.7535 0.894978C11.8055 1.48266 12.6879 2.33003 13.3158 3.35554C12.3451 3.35554 11.4141 3.73942 10.7277 4.42277C10.0413 5.10612 9.65567 6.03295 9.65567 6.99932C9.65567 7.96569 10.0413 8.89253 10.7277 9.57588C11.4141 10.2592 12.3451 10.6431 13.3158 10.6431C12.6772 11.6862 11.7755 12.5448 10.7002 13.1335C9.62508 13.7222 8.4138 14.0206 7.18692 13.9989C5.96004 13.9772 4.76017 13.6363 3.70666 13.01C2.65312 12.3837 1.78257 11.4938 1.18152 10.4287C0.580473 9.36372 0.269858 8.16065 0.28054 6.93907C0.291222 5.71749 0.622837 4.51997 1.24242 3.46555C1.862 2.4111 2.74799 1.53643 3.8123 0.928468C4.87667 0.320504 6.08228 0.000409097 7.30934 2.04885e-06H7.30866Z" fill="#434EFF"/>
<path fill-rule="evenodd" clip-rule="evenodd" d="M13.316 3.35538C12.3453 3.35538 11.4143 3.7393 10.7279 4.42265C10.0415 5.10599 9.65583 6.03277 9.65583 6.99914C9.65583 7.96557 10.0415 8.89235 10.7279 9.5757C11.4143 10.259 12.3453 10.643 13.316 10.643L13.2929 10.6774C12.5779 11.3226 11.69 11.7469 10.7371 11.8988C9.7843 12.0506 8.80769 11.9235 7.92612 11.5328C7.04455 11.1422 6.29602 10.5048 5.77173 9.6983C5.24744 8.89179 4.9699 7.95102 4.97292 6.99038C4.97595 6.02969 5.2594 5.09064 5.78881 4.28746C6.31822 3.4843 7.0707 2.85163 7.95474 2.46648C8.83871 2.08132 9.81612 1.96029 10.768 2.1181C11.7198 2.27592 12.6051 2.70579 13.316 3.35538Z" fill="#6972FF"/>
</svg>
